<?xml version="1.0" standalone="no"?>
<!DOCTYPE svg PUBLIC "-//W3C//DTD SVG 1.1//EN" "http://www.w3.org/Graphics/SVG/1.1/DTD/svg11.dtd" >
<svg xmlns="http://www.w3.org/2000/svg">
<metadata></metadata>
<defs>
<font id="uppereastsideregular" horiz-adv-x="1024" >
<font-face units-per-em="2048" ascent="1638" descent="-410" />
<missing-glyph horiz-adv-x="538" />
<glyph horiz-adv-x="0" />
<glyph horiz-adv-x="682" />
<glyph unicode=" "  horiz-adv-x="538" />
<glyph unicode="&#x09;" horiz-adv-x="538" />
<glyph unicode="&#xa0;" horiz-adv-x="538" />
<glyph unicode="!" horiz-adv-x="284" d="M45 1352h158l-68 -1065h-10q-10 106 -17.5 216.5t-11.5 223.5q-2 31 -3 60.5t-3 58.5q-8 129 -17.5 256t-27.5 250zM55 84q0 35 25.5 60.5t62.5 25.5q35 0 60.5 -25.5t25.5 -60.5q0 -37 -25.5 -61.5t-60.5 -24.5q-37 0 -62.5 24.5t-25.5 61.5z" />
<glyph unicode="&#x22;" horiz-adv-x="442" d="M33 1303.5v9.5q0 23 12 43t31 28q2 0 5 1t5 1h5h5q29 0 53.5 -15t30.5 -44q2 -8 3 -18.5t1 -20.5q-2 -43 -19.5 -84t-51.5 -74h-15v2v1v1v1v3v1q0 8 3 14t8 14q4 4 8 9.5t8 9.5q8 12 16.5 25.5t8.5 27.5v1v3q-2 2 -2 3l-1 1q-8 2 -15 3t-15 1l-1 1l-1 1q-25 2 -46.5 8.5 t-33.5 32.5q-2 4 -2 9.5zM240 1303.5v9.5q0 23 12 43t31 28q2 0 5 1t5 1h5h5q29 0 53.5 -15t30.5 -44q2 -8 3 -17.5t1 -19.5v-9t-2 -9q-4 -39 -21.5 -76t-48.5 -66h-14v2v3q-2 2 -2 3v1q0 8 4 14t8 14q4 4 7.5 8.5t5.5 8.5q10 12 18 25.5t8 29.5v1v3v3v1q-8 2 -15 3t-15 1 l-1 1l-1 1q-25 2 -46.5 8.5t-33.5 32.5q-2 4 -2 9.5z" />
<glyph unicode="#" />
<glyph unicode="$" horiz-adv-x="925" d="M39 475q0 6 1 11.5t1 9.5t1 9t1 11v8h18v-9v-11q0 -84 40 -154.5t118 -111.5h1h1h1h1q10 0 19.5 -4.5t17.5 -8.5q18 -10 37.5 -14t36.5 16l28 494q-18 16 -38.5 30.5t-40.5 26.5q-4 4 -8.5 6t-8.5 4q-39 25 -74.5 52.5t-60.5 72.5q-14 27 -22.5 56.5t-8.5 62.5v8v9 q2 35 14.5 67.5t30.5 57.5q49 59 114 90.5t134 52.5q4 20 7 43.5t6 46.5v4v4q2 27 5 54.5t9 50.5h14v-8.5t2 -6.5v-7v-7v-16.5t-2 -16.5q0 -8 -1 -16t-1 -17q-2 -16 -3 -31.5t-1 -29.5v-16.5t2 -16.5q10 -2 20.5 -4t20.5 -4q6 -2 12 -3t11 -3q12 -2 23 -3t22 -1q16 0 28.5 5 t20.5 17l14 191h14q4 -10 6.5 -21.5t2.5 -23.5q0 -8 -1 -16.5t-1 -16.5q-2 -8 -3.5 -16.5t-1.5 -16.5q-4 -16 -6 -31.5t-2 -29.5q0 -27 10.5 -46.5t41.5 -31.5q49 -14 82.5 -48t52.5 -81l-13 -12q-2 4 -4 7t-4 5q-27 43 -64.5 79t-95.5 44l-14 -33l-20 -383 q20 -10 40.5 -21.5t41.5 -23.5q76 -43 141 -102.5t78 -151.5q2 -8 2 -17.5v-17.5q0 -102 -65.5 -177t-149.5 -120q-10 -6 -25.5 -10t-30.5 -6q-31 -6 -54 -16.5t-23 -43.5v-1v-1v-1v-1q-2 -16 -3.5 -31.5t-1.5 -31.5q0 -6 -1 -13.5t-1 -13.5q0 -41 -4 -80t-16 -75l-10 2 l6 274q-8 0 -16.5 1t-16.5 3q-6 0 -12 1t-12 1q-6 2 -13.5 2h-15.5q-18 -2 -35.5 -6t-30.5 -18l-14 -271h-23l11 287q-16 14 -37 21.5t-41 13.5q-20 4 -41 11t-37 22q-63 37 -98 100.5t-35 132.5zM184 1088.5q0 -3.5 2 -5.5v-6v-6q12 -45 51 -80t82 -53q12 -4 23.5 -7 t24.5 -5l26 327l-12 31q-33 0 -57.5 -12t-49.5 -27h-1h-1q-8 -4 -16 -9t-16 -9q-25 -29 -40.5 -60.5t-15.5 -72.5v-5.5zM371 257.5q0 -24.5 2 -48.5h127q10 72 16 146.5t10 150.5q0 25 1 50.5t1 49.5v18.5v18.5q-2 8 -2 17.5v17.5l-127 39q-2 -10 -3 -19.5t-1 -19.5 q-6 -61 -12 -125t-10 -127q-2 -31 -2 -60.5v-58.5v-49.5zM414 907q12 -2 22 -7t23 -11q2 0 5 -2t7 -2q12 -6 26.5 -11.5t28.5 -5.5h6.5t6.5 2q2 0 5 1t5 1l26 392q-10 14 -30.5 22t-42.5 10h-5h-5q-18 0 -35 -5t-27 -15q-4 -35 -6 -72l-4 -74q-4 -47 -5 -94t-1 -90v-19v-20z M553 260.5q0 -22.5 2 -45.5q55 6 103.5 32.5t89.5 65.5q16 18 25 42t15 48q2 14 3.5 27.5t1.5 26.5v15t-2 13q-23 68 -79.5 111t-121.5 61q-2 0 -4 1t-4 1q-2 -10 -3 -19t-1 -17q-6 -45 -11.5 -87t-7.5 -85q-4 -37 -5 -74t-1 -74v-42.5z" />
<glyph unicode="%" horiz-adv-x="925" d="M66 -2q96 182 197.5 369.5t203.5 375.5q76 135 150.5 269.5t150.5 267.5h39l-8 -39q-78 -129 -151 -261t-142 -265q-14 -23 -26.5 -47.5t-24.5 -46.5q-84 -158 -169 -312.5t-177 -304.5q-4 -4 -10.5 -4h-12.5h-11t-9 -2zM109 1055v11t2 11q0 6 1 11.5t3 11.5 q8 45 44 72.5t79 44.5q10 4 19 7t19 5q4 0 8.5 1t10.5 1h8h8q43 0 81 -14.5t65 -45.5q18 -20 26.5 -46.5t10.5 -55.5v-8v-8q0 -20 -3.5 -40t-9.5 -36q-12 -41 -43.5 -65.5t-68.5 -37.5q-8 -2 -15.5 -4t-15.5 -4t-15.5 -2h-13.5q-45 0 -80.5 14.5t-70.5 36.5q-20 31 -34.5 67 t-14.5 73zM205 1022q2 -37 10 -70.5t31 -58.5q14 -2 27.5 -4t25.5 -2q41 0 79 14t66 45q16 20 21.5 43t5.5 47v16.5t-2 16.5q-2 16 -5 33.5t-7 32.5q-20 35 -55 56t-74 26q-6 2 -11.5 2h-9.5q-27 0 -51.5 -9.5t-40.5 -29.5q0 -18 -2 -38t-2 -38q-2 -10 -3 -18.5t-1 -16.5 q0 -12 -1 -23.5t-1 -23.5zM481 356q0 57 23.5 107.5t75.5 75.5q23 10 45 14t45 4h9h9q35 -4 67.5 -15.5t57.5 -29.5l4 -8t4 -6q16 -27 28.5 -56.5t12.5 -66.5q0 -12 -2 -24.5t-6 -26.5q-4 -39 -32.5 -67t-61.5 -46q-4 -4 -8 -6t-9 -4q-14 -6 -31.5 -9.5t-33.5 -3.5 q-29 0 -57.5 7.5t-53.5 17.5q-33 25 -59.5 61.5t-26.5 81.5zM573 434q0 -16 2.5 -32.5t4.5 -32.5q0 -18 2 -35t2 -33v-21.5t-4 -21.5l18 -35q16 -8 37.5 -12t42.5 -4q23 0 42 4t34 12q25 12 40 32.5t27 41.5q2 6 4 10l4 8q4 14 5.5 29.5t1.5 30.5q0 35 -11.5 67.5 t-40.5 57.5q-29 29 -66.5 34t-78.5 5h-7h-7q-31 -20 -41.5 -47t-10.5 -58z" />
<glyph unicode="&#x26;" horiz-adv-x="1239" d="M45 348q0 76 27.5 147.5t77.5 131.5q12 10 24 21t25 24q39 37 82 70.5t94 56.5q-10 18 -21.5 37.5t-23.5 40.5q-37 66 -69 136t-32 144q0 39 12.5 77t39.5 75q45 61 109.5 83.5t135.5 28.5h8.5h10.5q78 -4 148.5 -41t99.5 -116q10 -23 13 -48.5t3 -54.5v-13t-2 -13 q-2 -39 -16.5 -75t-40.5 -63q-12 -14 -24.5 -27.5t-25.5 -23.5q-18 -16 -35.5 -29.5t-37.5 -25.5q-14 -10 -31.5 -20.5t-36.5 -22.5q45 -82 104.5 -153.5t122.5 -139.5q14 -16 29.5 -32.5t32.5 -33.5q14 -16 29.5 -33.5t29.5 -33.5q12 16 25.5 32.5t25.5 32.5 q10 14 20.5 27.5t20.5 28.5q33 43 69 86t75 78l1 -1t3 -1h3h1h4h2q4 2 7 2t5 -5v-18q-68 -55 -130 -129t-103 -152q16 -20 34.5 -41.5t39.5 -42.5q43 -49 91 -94t97 -75q-4 -8 -10 -18.5t-12 -20.5q-18 -29 -45 -54.5t-60 -29.5l-227 211q-76 -96 -185.5 -169t-242.5 -73 q-20 0 -40 2t-42 4q-92 14 -168 84t-105 152q-8 29 -12 56.5t-4 53.5zM78 352q0 -35 7 -69.5t21 -65.5q43 -76 116 -133t167 -57h7h5q129 0 240 64.5t162 184.5q-113 115 -209 231t-186 245l-25 10q-59 -20 -116.5 -65.5t-102.5 -102.5q-41 -49 -63.5 -112.5t-22.5 -129.5z M367 1219q0 -70 33.5 -130.5t72.5 -117.5q8 -10 15.5 -21.5t15.5 -21.5q6 -10 13 -20.5t13 -20.5q88 16 157 80.5t87 150.5v9.5v11.5v33.5t-2 35.5q-2 31 -11 57.5t-32 47.5q-37 43 -87 62.5t-107 19.5h-4.5h-4.5h-4h-4q-6 0 -11 -2t-11 -4q-39 -10 -73 -36t-48 -67 q-4 -16 -6 -33.5t-2 -33.5z" />
<glyph unicode="'" horiz-adv-x="212" d="M29 1305.5v5.5v4v4q2 18 14 36.5t31 24.5q4 2 10 2h12q29 0 52.5 -14t27.5 -45q2 -8 3 -18.5t1 -20.5q-2 -43 -19.5 -84t-51.5 -74h-15v4.5v4.5q0 10 5 19t14 17q2 4 4 6.5t4 4.5q8 10 16 23.5t8 27.5v3v3q-2 0 -2 1v3q-6 2 -13 3t-15 1h-2t-2 2q-25 2 -45.5 8.5 t-32.5 32.5q0 2 -1 5t-1 5q-2 2 -2 5.5z" />
<glyph unicode="(" horiz-adv-x="342" d="M35 618v12.5v12.5q0 164 41 321.5t123 295.5l73 137h15q-45 -129 -65.5 -276.5t-26.5 -297.5q-4 -102 -4.5 -204.5t2.5 -200.5v-16.5v-16.5q14 -147 47.5 -284.5t89.5 -268.5l-21 -2q-131 166 -200.5 371t-73.5 417z" />
<glyph unicode=")" horiz-adv-x="356" d="M31 1403l4 20l22 -6q125 -170 196 -382t71 -431q0 -92 -13.5 -183t-42.5 -179q-35 -100 -79 -197.5t-109 -185.5l-10 -2q55 164 75.5 344t20.5 364v50.5t-2 50.5q0 76 -4 150.5t-10 146.5q-4 23 -8.5 45t-8.5 45q-16 90 -39.5 179t-62.5 171z" />
<glyph unicode="*" />
<glyph unicode="+" horiz-adv-x="471" d="M33 334v104h151v152h103v-152h151v-104h-151v-150h-103v150h-151z" />
<glyph unicode="," horiz-adv-x="270" d="M47 100v1v3q0 6 1 12.5t5 12.5q6 14 19.5 29.5t27.5 21.5q2 0 3 1t3 1q6 2 12.5 2h12.5q31 0 54.5 -16t35.5 -41q2 -6 3 -11t1 -12v-11v-11q0 -45 -21.5 -87t-56.5 -75q-4 4 -6 8t-2 9q0 8 6.5 16t14.5 16h2q6 8 12 16.5t8 14.5q-49 4 -86 23.5t-47 70.5q0 2 -1 3t-1 3z " />
<glyph unicode="-" horiz-adv-x="540" d="M37 385v119h467v-119h-467z" />
<glyph unicode="." horiz-adv-x="241" d="M31 90q0 27 18.5 49.5t40.5 30.5q10 4 19.5 6t17.5 2q31 0 54.5 -21.5t33.5 -50.5q0 -31 -14.5 -57t-42.5 -43q-8 -2 -16.5 -4t-16.5 0q-29 0 -50.5 15.5t-35.5 39.5q-4 8 -6 16.5t-2 16.5z" />
<glyph unicode="/" horiz-adv-x="933" d="M51 2l713 1610h119l-713 -1610h-119z" />
<glyph unicode="0" horiz-adv-x="1284" d="M57 705q2 154 54.5 299t160.5 256q84 80 192.5 122.5t221.5 42.5q33 0 64.5 -3t62.5 -11q76 -14 144.5 -72.5t119.5 -126.5q6 -10 13.5 -19t13.5 -17q51 -96 80.5 -214t36.5 -239v-23.5v-23.5q0 -145 -40 -282.5t-126 -233.5q-76 -86 -178.5 -123t-214.5 -37q-18 0 -37 1 t-37 3q-20 0 -39 3t-37 7q-131 41 -237.5 135.5t-155.5 225.5q-31 78 -46.5 162t-15.5 168zM260 764q4 -100 18.5 -199.5t30.5 -189.5q2 -6 3 -13.5t3 -13.5q23 -111 98.5 -202t186.5 -115q18 -2 35.5 -3t34.5 -1q143 0 257.5 68.5t184.5 183.5q35 88 56.5 186t25.5 197v23 v22q0 145 -42 283t-132 249q-68 76 -154 117t-180 41q-41 0 -83 -9.5t-83 -25.5q-152 -88 -206 -239.5t-54 -321.5v-17.5v-19.5z" />
<glyph unicode="1" horiz-adv-x="399" d="M18 1280v10q14 6 27.5 12.5t28.5 12.5q29 10 56.5 22.5t55.5 22.5q43 18 85 34.5t83 30.5l11 -57l-3 -1366h-172v1305q-6 2 -12 3t-12 1q-16 0 -31.5 -5.5t-30.5 -11.5q0 -2 -1 -2h-1q-16 -6 -31.5 -11t-31.5 -5h-5t-5 2q-2 0 -5.5 1t-5.5 1z" />
<glyph unicode="2" horiz-adv-x="1134" d="M53 104q0 16 3 33t12 29q31 31 68.5 43t78.5 12q14 0 27.5 -1t27.5 -3q35 -6 70 -16.5t68 -22.5q8 -2 16 -5t16 -7q158 111 239 283t116 354q2 16 5 32.5t5 32.5q0 12 1 23.5t1 21.5q2 25 3 49.5t1 49.5v24.5t-2 26.5q-4 74 -24.5 146.5t-69.5 127.5q-41 31 -88 45.5 t-95 12.5q-57 0 -111 -17.5t-99 -46.5q-61 -45 -112.5 -115.5t-55.5 -154.5h-25q0 98 56.5 178t142.5 133q53 27 113.5 40t121.5 13q115 0 218.5 -49t160.5 -151q33 -57 47.5 -119t14.5 -123q0 -145 -68 -284.5t-154 -249.5q-63 -82 -131.5 -158t-154.5 -135q10 -6 19 -11.5 t20 -11.5q63 -37 132.5 -67.5t151.5 -30.5h12.5t14.5 2q6 0 12 1t12 1q70 27 121 76t92 108q-6 -59 -44 -102t-91 -74q-39 -23 -80 -33t-82 -10h-13t-15 2q-76 6 -149.5 39t-135.5 76q-14 -8 -29.5 -18.5t-31.5 -20.5q-51 -31 -108.5 -56.5t-115.5 -25.5q-31 0 -61.5 9 t-58.5 30q-8 14 -12.5 30.5t-2.5 34.5zM76 102q2 -18 8 -35.5t20 -27.5q20 -6 40 -8t38 -2q68 0 127.5 30.5t100.5 77.5q-33 25 -77 40.5t-91 17.5h-8.5h-8.5q-39 0 -74.5 -11.5t-62.5 -36.5q-6 -8 -9 -20t-3 -25z" />
<glyph unicode="3" horiz-adv-x="1112" d="M53 317h23v-3v-1v-3v-3q0 -61 41 -110.5t90 -85.5q16 -12 30.5 -22.5t28.5 -20.5q39 -14 82 -26.5t86 -16.5q18 -2 35.5 -3.5t34.5 -1.5q59 0 116.5 15.5t108.5 52.5q80 49 107.5 125t29.5 158v13v13q0 35 -2 68t-4 65q-2 10 -3 19.5t-1 19.5q-2 6 -3 11.5t-3 9.5 q-14 51 -34.5 101t-67.5 89q-14 -6 -32 -12t-36 -14q-14 -4 -28.5 -10.5t-28.5 -10.5q-29 -10 -55.5 -15t-51.5 -5q-20 0 -39.5 6t-34.5 20q-12 10 -19 25.5t-7 30.5q0 4 1 7t1 7q2 2 3 6t3 6q18 29 45 38t57 9q12 0 24.5 -1t27.5 -3q6 -2 12 -2t12 -2q18 -2 36.5 -5 t35.5 -3q35 2 59.5 20.5t28.5 75.5q0 12 1 25.5t1 25.5v25.5v26.5q0 98 -23.5 188t-109.5 145q-25 8 -50.5 11.5t-52.5 3.5q-66 -2 -129 -20.5t-110 -47.5q-51 -45 -80 -98t-51 -107l-29 13q8 18 16.5 36.5t18.5 38.5q29 53 69.5 102.5t92.5 67.5q57 20 117.5 31.5 t121.5 11.5q104 0 196.5 -43t141.5 -145q16 -25 23.5 -57.5t7.5 -67.5t-6 -68.5t-19 -62.5q-20 -41 -51 -80t-70 -69q12 -10 26.5 -19.5t29.5 -17.5q63 -47 121.5 -104.5t78.5 -139.5q4 -14 7.5 -28.5t3.5 -26.5q2 -14 3 -28.5t1 -29.5q0 -70 -22.5 -137t-69.5 -121 q-84 -98 -202 -140t-245 -42q-63 0 -125.5 9t-122.5 26q-6 4 -13 8t-13 8q-72 47 -131.5 118t-61.5 148zM442 779q0 -3 2 -7q0 -8 3.5 -15t9.5 -12q16 -8 32.5 -11t32.5 -3q47 0 93.5 24.5t78.5 57.5q-35 18 -73.5 25.5t-83.5 9.5h-3.5h-3.5q-33 0 -60.5 -15.5t-27.5 -46.5 v-7z" />
<glyph unicode="4" horiz-adv-x="1290" d="M59 369v26q49 55 97.5 112.5t97.5 113.5q18 25 37.5 47t40.5 45q158 184 316.5 365.5t322.5 346.5q4 -129 3 -260t-1 -264q-2 -68 -2 -134.5v-135.5v-111.5t2 -116.5q10 -2 19 -2h20q45 0 90 15.5t88 36.5q8 2 15 5t16 7l12 -27q-37 -31 -87 -51t-102 -31 q-18 -2 -35.5 -4t-33.5 -2v-350l-191 2v342q-43 6 -86 13.5t-86 15.5q-47 10 -95 18t-97 12q-31 4 -61.5 6.5t-61.5 2.5q-59 0 -118.5 -10.5t-119.5 -32.5zM135 430q37 12 74 17.5t74 5.5q57 0 114.5 -9.5t116.5 -21.5q57 -12 115.5 -21.5t115.5 -9.5h9.5t11.5 2h9h9v774 h-22q-51 -59 -104.5 -120.5t-106.5 -122.5q-31 -35 -60.5 -71t-60.5 -71q-76 -90 -149.5 -178t-145.5 -174z" />
<glyph unicode="5" horiz-adv-x="1089" d="M49 244l14 16q57 -98 154.5 -166.5t228.5 -70.5q117 -2 212.5 35.5t148.5 138.5q16 59 27.5 127.5t13.5 138.5v17v18q0 121 -36 229.5t-130 177.5q-45 16 -95 25.5t-102 9.5q-78 0 -149.5 -25.5t-124.5 -89.5v-17t-2 -17v-11.5v-9.5q-2 -45 -11.5 -84t-45.5 -55 q-4 -2 -9.5 -2h-9.5q-14 4 -26.5 16t-18.5 27q-2 2 -3 5t-1 5q-2 6 -2 12v13q0 33 17.5 56t37.5 46l1 1l1 1q20 20 37 43t17 51l2 63q2 64 4 148v25.5v27.5q2 51 3 99.5t1 85.5q0 10 5 14t13 8q4 2 9.5 4t9.5 4q53 23 107 31t108 8q35 0 67.5 -2t65.5 -4q33 -4 65.5 -6 t65.5 -2q35 0 67.5 4t65.5 12q4 -8 6 -15t2 -15v-9.5v-9.5q-2 -4 -2 -9v-9q-53 -12 -108.5 -16.5t-112.5 -4.5q-35 0 -71 1t-70 3q-31 2 -63 5.5t-62 5.5q-20 2 -42 3t-44 3q-4 -2 -9.5 -5t-9.5 -5q-12 -8 -23.5 -18.5t-13.5 -26.5q-4 -35 -6 -69t-2 -69v-40.5v-41.5v-27.5 v-27.5q0 -31 -1 -61.5t-3 -61.5l8 -12q57 37 129 57.5t146 22.5h11h11q90 0 175 -23.5t151 -70.5q96 -76 144 -179.5t48 -220.5q0 -29 -3 -58.5t-9 -58.5q-20 -113 -106 -192.5t-187 -124.5q-18 -8 -35.5 -15t-35.5 -14q-33 -4 -69 -7t-73 -3q-10 -2 -22.5 -2h-24.5h-20.5 h-20.5q-70 4 -138.5 24.5t-129.5 73.5q-39 33 -69.5 67t-47.5 75zM104 678q0 -2 2 -4q2 -8 10.5 -16.5t20.5 -8.5q4 0 7 1t6 3q23 12 31.5 38t8.5 52v7.5v5.5q-2 10 -3 21t-3 20q-2 4 -3 8t-1 6q-4 -4 -10 -9t-10 -11q-23 -20 -40.5 -46t-15.5 -55v-1v-3v-3v-1v-4z" />
<glyph unicode="6" horiz-adv-x="1214" d="M55 694q0 162 56.5 315.5t175.5 266.5q84 74 188.5 111.5t214.5 37.5q45 0 89 -7t89 -19q6 -2 11.5 -5t11.5 -5q37 -16 72.5 -36t64.5 -53l-16 -14q-61 59 -142.5 85t-167.5 26q-35 0 -70.5 -4t-70.5 -11q-154 -59 -214 -202.5t-75 -302.5q-6 -49 -8 -97.5t-2 -93.5 q80 113 194.5 169t250.5 54h8h10h8h8q125 -4 237 -81.5t163 -198.5q6 -23 10 -48.5t6 -50.5q2 -12 2 -24v-25v-10v-10q-2 -72 -23.5 -140.5t-64.5 -121.5q-88 -98 -208 -148.5t-247 -50.5h-24t-25 2q-23 6 -45 13.5t-45 15.5q-125 51 -234.5 150.5t-144.5 232.5 q-20 68 -31.5 138.5t-11.5 141.5zM250 502q0 -8 2 -17q2 -49 13 -97t24 -93q4 -14 7 -27.5t7 -25.5q43 -88 125 -142.5t176 -64.5h6h6h5.5h5.5q139 0 253.5 56t192.5 169q25 39 38 82t15 86q2 8 2 17.5v17.5q0 12 -1 25.5t-1 25.5q-4 39 -14 77t-22 73q-29 55 -79 100 t-106 76q-8 4 -17 9t-20 9q-39 10 -76.5 15.5t-78.5 5.5h-11.5h-9.5q-100 -4 -194.5 -41t-167.5 -109q-45 -45 -62.5 -98t-17.5 -113v-16z" />
<glyph unicode="7" horiz-adv-x="1261" d="M57 1197v11q0 45 18.5 81t49.5 67q57 39 119.5 54t128.5 15q35 0 69.5 -4t69.5 -10q61 -10 121.5 -27.5t118.5 -35.5q35 -10 68.5 -20.5t66.5 -20.5l35 8q8 6 15 13t15 13q35 31 77 56.5t89 23.5q14 0 29.5 -3t30.5 -9q12 -8 19 -22.5t5 -30.5q0 -8 -2 -17.5t-6 -17.5 q-31 -31 -71 -39t-81 -8h-9h-11q-20 0 -39.5 -1t-38.5 -5q-131 -225 -209 -476t-141 -507q-8 -35 -16.5 -69l-16.5 -66q-8 -33 -15 -65t-16 -65q-8 0 -30.5 -2t-50.5 -4q-14 -2 -27.5 -3t-28.5 -3q-18 0 -35.5 -1t-33.5 -1h-12.5h-10.5q102 332 240.5 651.5t324.5 614.5 q-61 6 -121.5 19.5t-119.5 27.5q-4 0 -9.5 1t-9.5 3q-74 16 -147.5 30.5t-151.5 14.5q-33 0 -64.5 -3t-64.5 -9q-37 -18 -60.5 -51t-29.5 -68q-2 -8 -3 -16.5t-1 -16.5v-5v-7l45 -111q-23 10 -34 24.5t-19 31.5q-2 2 -3 5t-1 5q-2 6 -5.5 11t-5.5 9q0 6 -1 11.5t-1 9.5 q-2 4 -2 9zM977 1303l82 -9q6 0 11 1t11 3q29 6 54.5 19.5t31.5 46.5v1v3v3v1q0 12 -11 18.5t-23 8.5h-7.5h-7.5q-43 -2 -72.5 -19.5t-58.5 -60.5q-2 -4 -5 -8t-5 -8z" />
<glyph unicode="8" horiz-adv-x="1208" d="M53 365q2 63 23.5 120.5t54.5 108.5q33 39 71 61.5t77 40.5q4 2 7 3t7 3q16 8 33.5 17.5t33.5 19.5q-4 2 -7 5.5t-7 5.5q-66 49 -122 111.5t-68 142.5q-2 14 -4 27t-2 28q0 59 21.5 112.5t53.5 100.5q78 74 182.5 113.5t215.5 39.5q35 0 68.5 -4t66.5 -12q6 -2 13 -4 t15 -4q63 -23 124 -60.5t102 -95.5q16 -29 22 -59.5t6 -63.5v-16t-2 -19q-2 -25 -8 -50t-14 -48q-16 -45 -52 -77.5t-75 -59.5l-10.5 -7l-10.5 -7q-14 -10 -26.5 -19.5t-24.5 -19.5q23 -12 45.5 -24.5t44.5 -26.5q84 -49 156 -116t90 -167v-9t2 -10v-11v-9 q-2 -106 -46 -197.5t-146 -138.5q-86 -43 -184.5 -66.5t-200.5 -23.5t-202 27.5t-183 87.5q-45 23 -76 65.5t-47 89.5l-4.5 13.5l-4.5 13.5q-2 16 -5 33.5t-3 34.5zM96 397q0 -2 1 -5t1 -5v-6v-6v-4v-4v-8.5v-8.5q0 -78 43 -140.5t109 -103.5q63 -35 144 -55t165 -24h20.5 h20.5q80 0 155.5 15t137.5 48q59 29 105 86t46 121q-25 168 -146.5 232.5t-262.5 103.5q-8 2 -16.5 4t-14.5 4q-55 14 -107.5 30.5t-97.5 37.5l-106 -39q-78 -43 -137.5 -112t-59.5 -161zM254 1123.5q0 -7.5 2 -15.5q49 -106 148.5 -155.5t207.5 -82.5q10 -4 22.5 -7 t24.5 -7q29 -8 57.5 -17.5t55.5 -19.5q68 27 119 74t90 111q14 25 20.5 54t6.5 60q0 29 -7.5 56.5t-19.5 48.5q-51 90 -145.5 130t-198.5 40h-11h-12q-78 -4 -151.5 -27t-132.5 -61q-37 -27 -56.5 -71t-19.5 -95v-15.5z" />
<glyph unicode="9" horiz-adv-x="1216" d="M55 916.5v21.5q0 70 20.5 136.5t59.5 121.5q68 102 173.5 161.5t223.5 67.5q143 0 267.5 -50t212.5 -171q86 -94 117.5 -218t31.5 -253v-29.5t-2 -29.5q-2 -45 -7 -90t-11 -88q-39 -137 -120 -253t-208 -184q-59 -29 -129 -44t-141 -15q-88 0 -172 25.5t-146 76.5 q6 6 12.5 9.5t10.5 1.5q6 0 12 -3.5t12 -9.5q4 -2 8.5 -6t8.5 -8q10 -10 21.5 -18.5t25.5 -8.5q45 -16 98 -27.5t111 -11.5q66 0 128 18.5t107 61.5q106 92 137 224.5t41 271.5q2 8 2.5 17.5t2.5 19.5q0 20 2 41.5t4 44.5l-15 14q-68 -106 -190.5 -169.5t-257.5 -67.5 q-12 2 -24.5 3t-24.5 3q-106 18 -204.5 70.5t-152.5 154.5q-16 39 -27.5 82t-15.5 86q-2 10 -2 21.5zM94 934q0 -47 9.5 -94t25.5 -90q37 -100 121 -148.5t178 -66.5q12 -2 23.5 -3.5t23.5 -3.5q123 0 230.5 44t189.5 135q35 45 49 96t14 104q0 23 -2 44.5t-6 43.5 q-8 47 -21.5 93.5t-27.5 89.5q-2 4 -3 8t-3 8q-4 6 -8 13l-8 14q-33 55 -86.5 101t-116.5 52q-27 6 -54.5 9t-54.5 3q-94 0 -182 -33.5t-160 -99.5q-68 -61 -99.5 -145t-31.5 -174z" />
<glyph unicode=":" horiz-adv-x="284" d="M51 440q0 6 1 11.5t3 9.5q0 4 2 8t2 8q2 6 4.5 12.5t4.5 12.5q14 25 32.5 32t38.5 11q2 0 5 1t6 1q29 -2 47 -19.5t32 -44.5v-4t2 -6v-4v-6q0 -31 -14 -57.5t-47 -38.5h-4h-2h-4h-4h-6.5h-6.5q-23 2 -42 10t-33 22q-8 10 -12.5 20.5t-4.5 20.5zM59 90q0 27 18.5 49.5 t41.5 30.5q10 4 19 6t18 2q31 0 54 -21.5t34 -50.5q0 -31 -14.5 -57t-43.5 -43l-16 -4t-16 0q-29 0 -50.5 15.5t-35.5 39.5q-4 8 -6.5 16.5t-2.5 16.5z" />
<glyph unicode=";" horiz-adv-x="284" d="M49 473q0 4 1 9t3 12q0 4 3 9t5 9q14 14 28.5 22.5t31.5 14.5q2 2 5 3t5 1h4t4 2h2h4q27 -2 44.5 -20.5t29.5 -38.5l3 -3t1 -4q0 -4 1 -7t1 -7v-7v-7q0 -27 -12 -49.5t-43 -32.5h-3h-3h-5h-7q-23 0 -42.5 6t-35.5 21q-10 14 -17.5 31.5t-7.5 35.5zM55 101v5q0 6 2 12.5 t6 14.5q8 16 21.5 29.5t30.5 19.5q6 2 12 2h12q31 0 53.5 -16t34.5 -41q2 -6 3 -11t1 -12v-11v-11q0 -45 -20.5 -87t-54.5 -75q-4 4 -6.5 8t-2.5 9q0 8 6.5 16t12.5 16l1 1l1 1q6 8 12 15.5t8 13.5q-49 4 -84.5 23.5t-46.5 70.5q-2 4 -2 7z" />
<glyph unicode="&#x3c;" />
<glyph unicode="=" horiz-adv-x="471" d="M33 334v104h405v-104h-405zM33 559v103h405v-103h-405z" />
<glyph unicode="&#x3e;" />
<glyph unicode="?" horiz-adv-x="819" d="M61 1110v7v7q2 10 4.5 20.5t4.5 18.5q37 88 114.5 125t163.5 45h5h5q109 0 209.5 -25.5t163.5 -115.5q23 -45 32 -84t9 -76q0 -96 -56.5 -173t-127.5 -150q-8 -10 -17.5 -18.5t-17.5 -16.5q-57 -59 -111.5 -123t-83.5 -139v-4v-5v-4v-4v-4v-2q2 -25 10.5 -44t26.5 -26 l58 11q4 -4 7 -9.5t3 -11.5q2 -2 2 -5v-5q-2 -10 -3 -20.5t-5 -18.5q-16 -14 -36 -27.5t-44 -13.5h-9.5t-9.5 2q-27 10 -44 34t-15 52v7v5q14 88 60.5 170t99.5 162q10 14 19 29.5t20 30.5q51 78 89 157.5t38 165.5q-2 43 -12.5 87t-37.5 89q-43 53 -100 77t-123 24 q-20 0 -39.5 -2t-40.5 -6q-4 -2 -8 -3.5t-8 -3.5q-33 -14 -62.5 -35.5t-41.5 -54.5q-2 -2 -3.5 -6t-1.5 -6q-2 -4 -2 -7v-7q0 -12 4.5 -24.5t10.5 -25.5q0 -2 2 -4t2 -4h3h1q14 0 20.5 -10t6.5 -25q0 -8 -3.5 -17t-7.5 -15q-6 -8 -17 -13.5t-22 -7.5h-6h-4q-8 0 -17 2t-16 4 q-23 10 -32 30t-9 40zM291 72q0 35 24.5 59.5t59.5 24.5t58.5 -25t23.5 -59q0 -33 -24.5 -56.5t-57.5 -23.5t-58.5 23.5t-25.5 56.5z" />
<glyph unicode="@" />
<glyph unicode="A" horiz-adv-x="1331" d="M53 0l213 498h-198v28h208l375 899l625 -1425h-197l-215 498h-565l-217 -498h-29zM309 526h543l-272 641z" />
<glyph unicode="B" horiz-adv-x="1050" d="M55 1413q45 4 90 6t91 4q23 2 45 2h45q90 0 176 -11t162 -42q47 -37 84.5 -80t64.5 -92q10 -33 16.5 -66.5t6.5 -68.5q0 -53 -15.5 -105.5t-48.5 -93.5q14 -10 29.5 -22.5t32.5 -24.5q43 -39 82.5 -87t60.5 -101q6 -20 11 -42t7 -42q4 -20 5 -42t1 -42q0 -88 -31.5 -172 t-103.5 -146q-123 -98 -284.5 -119.5t-331.5 -23.5h-22.5h-22.5h-13.5h-15.5h-60.5t-58.5 -2v52v143q0 123 1 299t1 362q-2 152 -2 296t-2 261zM233 35h31h29q121 0 223 11t201 32q96 39 166.5 124t81.5 185q4 12 6 23.5t2 23.5q2 12 2 23.5v23.5q0 90 -40 175t-114 143 q-16 18 -32.5 25t-30.5 7t-26.5 -6t-24.5 -12q-8 -6 -15.5 -11t-15.5 -9q-20 -16 -43 -28.5t-49 -12.5h-4t-5 2h-4h-4q-12 -2 -24.5 -2h-22.5q-39 0 -74.5 13t-64.5 48q-2 4 -4 7t-2 7q-2 2 -2 6.5v6.5q2 16 15 30.5t28 22.5l3 3t3 1q27 16 54.5 22.5t53.5 6.5q10 0 19.5 -1 t17.5 -1q27 -4 53.5 -10.5t53.5 -14.5q18 -4 36.5 -9t34.5 -9q35 37 51.5 84t16.5 96v16t-2 19q-2 25 -9 50t-18 48q-54 121 -164 162q-105 39 -220 39h-11q-39 0 -78 -3t-75 -8zM410 828q0 -4 2 -5q2 -6 6 -11t10 -9q20 -8 45 -14.5t49 -8.5q6 -2 12.5 -2h12.5h8h8 q41 4 79 18.5t67 43.5v18q-25 10 -47.5 18.5t-45.5 10.5q-14 4 -28.5 5t-30.5 1q-25 0 -51.5 -3t-54.5 -9q-15 -3 -29 -17q-12 -12 -12 -26v-10z" />
<glyph unicode="C" horiz-adv-x="1374" d="M61 674q0 20 1 40.5t4 41.5q4 41 12 83t20 81q49 190 215 337.5t365 165.5q16 2 33.5 2h31.5q152 0 283 -50t217 -177l-12 -8q-86 104 -211 162q-121 56 -251 55h-9q-45 0 -90 -6t-90 -21q-186 -80 -245 -245.5t-65 -350.5q-2 -51 -2 -103t2 -103v-21.5v-24.5q0 -8 2 -16 t2 -16q20 -131 84 -251t179 -186q51 -27 105 -39t112 -12h20t21 2q96 6 188 44t164 96l5 5l5 5q43 45 83 94t60 107h13q-43 -145 -167 -235.5t-265 -119.5q-4 -2 -8.5 -3t-8.5 -1q-29 -2 -58.5 -4t-57.5 -2q-150 0 -282 49t-239 162q-84 96 -125 216t-41 247z" />
<glyph unicode="D" horiz-adv-x="1224" d="M47 6v1401q53 10 108.5 14t112.5 4q37 0 74 -2t74 -2q35 -2 70.5 -4t70.5 -2q135 -14 255 -74.5t208 -169.5q90 -90 131 -205.5t41 -238.5q0 -78 -15.5 -155.5t-43.5 -151.5q-98 -254 -323.5 -333t-475.5 -85h-38h-40q-53 0 -105.5 1t-103.5 3zM252 27q141 6 273 19 t259 65q133 55 220.5 169.5t128.5 243.5q10 47 15 96.5t5 100.5v9v9q-4 127 -48 247t-142 208q-104 119 -251 157t-300 42h-24.5h-25.5h-54t-56 -2v-1364z" />
<glyph unicode="E" horiz-adv-x="923" d="M55 1425h142.5h162.5h163h141h101h38v-26h-101h-223h-132h-111v-428h651l-2 -29h-649v-909h589v-35l-768 2z" />
<glyph unicode="F" horiz-adv-x="917" d="M47 2l2 1423h762v-28l-571 -2v-424h634v-33h-634v-936h-193z" />
<glyph unicode="G" horiz-adv-x="1472" d="M68 676q0 70 10 138.5t28 131.5q51 178 208 304t335 163q10 2 19.5 3t19.5 3q23 4 45.5 5t42.5 1q145 0 271.5 -59t226.5 -168q0 -6 -2 -12t-8 -17q-90 109 -210 170.5t-253 61.5q-39 0 -81 -6t-83 -19q-102 -27 -183 -110.5t-122 -178.5q-2 -2 -3 -4t-1 -4 q-25 -94 -42.5 -201.5t-17.5 -218.5q2 -158 48 -304t165 -244q63 -47 141 -67.5t160 -20.5q35 0 71 3t69 9q143 37 264 145.5t160 255.5l-17 17h-579l-19 114q55 0 111.5 2t113.5 4q37 2 76 3.5t76 3.5h39.5h38.5q55 0 110.5 -3.5t110.5 -9.5q0 -2 -1 -5t-1 -5 q-23 -162 -127 -308.5t-264 -211.5q-61 -18 -124 -27.5t-126 -9.5q-143 0 -279.5 51t-238.5 152q-94 96 -136 219t-42 254z" />
<glyph unicode="H" horiz-adv-x="1112" d="M63 4v1413h177v-516h790v518h31v-1421l-31 2v877h-790v-873h-177z" />
<glyph unicode="I" horiz-adv-x="307" d="M47 0v1417h203v-1419z" />
<glyph unicode="J" horiz-adv-x="841" d="M39 287q0 23 5 46t17 46q4 2 6.5 5t4.5 5q4 2 9 5t13 3q0 -4 -1 -8t-3 -10t-4 -13.5t-6 -15.5q-6 -12 -10 -27.5t-4 -33.5v-1v-1v-1v-1q4 -70 35.5 -130.5t95.5 -97.5q29 -12 62.5 -20t68.5 -12q10 0 20 -1t21 -1q41 0 79.5 10t71.5 37q53 41 70.5 103.5t23.5 127.5 q2 4 2 9v9q2 6 3.5 14.5t1.5 14.5v1071h178v-21v-55v-230v-310q0 -117 -1 -229.5t-3 -200.5q-8 -100 -64.5 -192.5t-148.5 -139.5q-47 -18 -102.5 -29.5t-112.5 -11.5q-66 0 -127.5 18.5t-108.5 59.5q-37 43 -64.5 97t-27.5 112z" />
<glyph unicode="K" horiz-adv-x="1112" d="M49 8v1409l187 -2l-3 -518l17 -12q94 63 183 135t179 145q80 66 162 132.5t168 125.5l12 -16l-489 -397q59 -104 121.5 -208t126.5 -206q8 -14 17 -27.5t18 -27.5q82 -131 160.5 -262.5t152.5 -264.5l-19 -12l-106 174q-107 174 -236 383q-72 119 -140 231.5t-118 196.5 l-198 -153v-826h-195z" />
<glyph unicode="L" horiz-adv-x="849" d="M53 6v1413h187v-1384h573v-29h-760z" />
<glyph unicode="M" horiz-adv-x="1490" d="M76 0v1423l663 -1187l105 189q104 189 231 415q123 221 226.5 402t107.5 177v-1415h-5h-15h-43h-54q-20 0 -39.5 -1t-35.5 -1v1012l-101 -186q-100 -187 -219 -410q-59 -111 -116.5 -216.5t-102.5 -189.5l-25 2q-41 82 -96 184.5t-115 209.5q-6 12 -13 24t-15 25 q-117 207 -214 371l-98 163v-991h-26z" />
<glyph unicode="N" horiz-adv-x="1116" d="M55 6v1401l975 -567v573h35v-1409h-35v619l-936 557v-1174h-39z" />
<glyph unicode="O" horiz-adv-x="1462" d="M68 680v25.5t2 27.5q8 137 60 268.5t165 229.5q96 90 220 142t261 52q18 0 35.5 -1t34.5 -3q16 0 33.5 -3t35.5 -7q133 -29 248 -119t178 -217q41 -76 59.5 -166t18.5 -182v-12v-13q-4 -115 -34.5 -226t-84.5 -200q-94 -143 -236 -209.5t-304 -66.5q-39 0 -81 4t-83 12 q-188 41 -334.5 183.5t-183.5 335.5q-4 35 -7 71.5t-3 73.5zM264 723q4 -100 22.5 -196.5t45.5 -180.5q2 -8 5 -17.5t7 -17.5q41 -100 131 -184t201 -96q14 -2 27.5 -4t27.5 -4q12 0 25.5 -1.5t27.5 -1.5q152 0 284 73t214 204q53 84 80 188.5t27 210.5q0 113 -27 220.5 t-76 195.5q-68 109 -169 184.5t-222 100.5q-12 2 -25.5 4t-27.5 2q-14 2 -27.5 2h-26.5q-94 0 -182 -29.5t-157 -97.5q-100 -98 -142.5 -236.5t-42.5 -285.5v-16.5v-16.5z" />
<glyph unicode="P" horiz-adv-x="1124" d="M51 1419h39h41q47 1 96 1h51q76 -1 154 -7q172 -14 330 -76.5t248 -224.5q35 -53 53 -118.5t20 -133.5v-11v-11q0 -59 -11 -115.5t-34 -106.5q-47 -119 -154.5 -197.5t-226.5 -109.5q-16 -4 -31.5 -7t-31.5 -5q-27 -4 -52.5 -7t-52.5 -3q-18 0 -37.5 1t-37.5 3 q-12 0 -24.5 1t-24.5 3q-27 2 -52.5 4t-50.5 2v-299h-209zM260 338q35 -16 76 -19.5t82 -3.5h10h8h12.5h12.5h32.5t30.5 -2q150 4 281 83t201 216q20 39 31.5 87.5t13.5 97.5v12v12q0 53 -10.5 106.5t-26.5 98.5q-25 76 -86.5 142.5t-130.5 113.5q-12 6 -23.5 14.5 t-23.5 14.5q-27 10 -52.5 19t-50.5 16q-82 25 -170 35t-217 16v-1059z" />
<glyph unicode="Q" horiz-adv-x="1445" d="M43 670q0 90 19.5 177t52.5 163q78 160 227.5 275.5t333.5 129.5q8 0 16 1t17 1h16h16q141 0 263 -55t217 -158q88 -100 130 -231q40 -125 40 -258v-13q0 -63 -8.5 -124.5t-24.5 -120.5q-39 -168 -183.5 -297t-312.5 -156v-12q31 -12 61.5 -29.5t61.5 -36.5q6 -4 12.5 -8 t12.5 -8q78 -47 157.5 -86t171.5 -39q23 0 47.5 3t49.5 9q-14 -16 -36 -20t-46 -4q-10 0 -20.5 1t-20.5 1q-12 0 -22.5 1t-20.5 1h-7t-8 -2h-5h-7q-70 8 -128 41.5t-116 72.5q-59 41 -121.5 75t-138.5 36q-168 2 -316.5 61.5t-248.5 190.5q-68 88 -99.5 196.5t-31.5 221.5z M246 774q0 -23 1 -45t3 -45q8 -100 28.5 -199.5t47.5 -191.5q53 -113 157.5 -191.5t235.5 -81.5h7h7h6h6q170 0 314.5 89.5t222.5 238.5q39 84 59.5 175t20.5 186q0 139 -47 271t-144 234q-70 61 -141.5 108.5t-157.5 63.5q-29 4 -58.5 6.5t-57.5 2.5q-94 0 -180.5 -28 t-153.5 -91q-98 -102 -137 -232.5t-39 -269.5z" />
<glyph unicode="R" horiz-adv-x="1136" d="M55 14v1411q37 -2 75 -2h77h8h8q203 -4 393.5 -39.5t319.5 -197.5q66 -72 97.5 -163t31.5 -187q0 -33 -4 -65t-10 -64q-35 -137 -137.5 -235.5t-233.5 -145.5q8 -18 19.5 -37t23.5 -37q57 -88 144 -163q85 -73 194 -73h6h9h9v-16h-4h-4h-4h-4q-147 0 -244.5 95 t-169.5 210q-10 4 -22 4h-25q-14 0 -29.5 -1t-29.5 -1q-16 -2 -30.5 -3t-31.5 -1q-33 0 -62.5 7t-51.5 28q-20 12 -31.5 34.5t-11.5 49.5q0 12 3 24.5t9 22.5q18 16 44 25.5t52 9.5q10 0 19.5 -1t17.5 -5q55 -20 99 -55t77 -89q8 2 17.5 3t17.5 5q84 20 164 81t127 145 q31 49 44 109.5t13 123.5t-12 125t-33 113q-72 160 -224.5 234.5t-320.5 90.5q-35 4 -69.5 6.5t-69.5 2.5h-33.5t-33.5 -2v-1377h-183zM354 417q0 -1 2 -3v-3v-3q18 -43 55.5 -56.5t80.5 -15.5q8 -2 17 -2h17h9.5h11.5q2 -2 4 -2h4h7h7q16 0 27.5 5t13.5 25q-33 45 -78 80 t-104 35q-8 0 -17.5 -1t-19.5 -3q-14 -8 -25.5 -22.5t-11.5 -30.5v-3z" />
<glyph unicode="S" horiz-adv-x="995" d="M45 289h1h1h1h1q12 0 18.5 -12.5t12.5 -28.5q0 -4 1 -7t3 -8q4 -14 9 -26t16 -21q61 -88 155 -124.5t197 -36.5q31 0 61.5 3t59.5 7q82 20 146.5 72.5t84.5 138.5q4 16 6 32.5t2 30.5q0 55 -20.5 104.5t-50.5 92.5q-45 45 -107.5 82t-128.5 74q-2 0 -4 1t-4 3 q-125 66 -228.5 146.5t-103.5 225.5q0 25 4 52.5t12 56.5q37 117 138.5 184.5t216.5 87.5q6 2 12 3t12 1h4h5h4h4h15t15 2h15.5h15.5q18 0 33.5 -4t24.5 -14v-14q-25 6 -48.5 8t-46.5 2q-72 0 -140.5 -23.5t-121.5 -68.5q-33 -41 -49 -90.5t-16 -104.5v-1v-3v-3v-1 q33 -115 119.5 -172t185.5 -105q49 -23 96 -47t88 -55q86 -61 132 -150.5t46 -197.5v-15.5t-2 -13.5q0 -8 -1 -15t-1 -15q-25 -86 -85 -159t-144 -114q-43 -14 -87 -25.5t-89 -17.5q-23 -4 -44.5 -5t-43.5 -1q-94 0 -183.5 34t-160.5 113q-27 31 -44.5 67t-19.5 75z" />
<glyph unicode="T" horiz-adv-x="1046" d="M57 1389v32h932v-32h-366l2 -1391l-193 2v1389h-375z" />
<glyph unicode="U" horiz-adv-x="1193" d="M53 1415q12 -2 26.5 -4t31.5 -4h14h14q20 0 39 1t31 3q14 0 23 1l8 1q-2 -82 -2 -184.5v-208.5v-219.5v-190.5q2 -82 2 -131v-49q0 -131 68.5 -231.5t187.5 -143.5q37 -14 76.5 -21t78.5 -7q76 2 147.5 25.5t123.5 68.5q113 90 148.5 222t41.5 273q2 35 2 70v70l4 655 l23 -8v-142.5t2 -134.5t2 -129v-127v-19v-20q0 -106 -7.5 -215.5t-25.5 -230.5q-31 -125 -128 -231.5t-226 -135.5q-37 -8 -75 -12t-77 -4q-88 0 -174 24.5t-158 73.5q-150 109 -181.5 275t-33.5 346q-4 82 -4 168v174v9v9q2 39 2 78v78v29.5v29.5q0 31 -1 60.5t-3 58.5z " />
<glyph unicode="V" horiz-adv-x="1314" d="M57 1415h187l530 -1147l453 1149h24l-549 -1417z" />
<glyph unicode="W" horiz-adv-x="1822" d="M84 1413l174 -6l473 -1135l170 435l-285 706l199 -6l184 -469l183 477h30l-194 -526l254 -608l434 1132h33l-531 -1413l-290 655l-254 -661z" />
<glyph unicode="X" horiz-adv-x="1202" d="M47 -2l463 682l-459 729h213l367 -578l385 580h51l-412 -610l500 -799h-219l-404 643l-438 -645z" />
<glyph unicode="Y" horiz-adv-x="1277" d="M59 1407h197l483 -940l459 936h31l-469 -983l-2 -408h-174v336z" />
<glyph unicode="Z" horiz-adv-x="1099" d="M49 2l782 1380h-667v33h880l-786 -1384h793v-29h-1002z" />
<glyph unicode="[" />
<glyph unicode="\" horiz-adv-x="813" d="M45 1401h102l621 -1399h-104z" />
<glyph unicode="]" />
<glyph unicode="^" horiz-adv-x="516" d="M47 662l223 200l36 -30q36 -31 77 -70q43 -37 78 -68l35 -32l-226 129z" />
<glyph unicode="_" />
<glyph unicode="`" horiz-adv-x="516" d="M174 823l10 64l215 -193z" />
<glyph unicode="a" horiz-adv-x="606" d="M25 283q0 53 18 101t57 87q41 41 89.5 63.5t99.5 22.5q10 0 21.5 -1t23.5 -3q10 -2 21.5 -6t21.5 -8q4 -2 7 -3t7 -4q10 -4 19.5 -8t19.5 -12q4 -2 8 -6l8 -8q4 4 6.5 9t4.5 11t4 13.5t6 13.5h98v-539h-114l-1 4q-1 4 -1 13q0 4 -1.5 10t-1.5 14v4v4l-10 -7t-24 -15 q-6 -2 -12.5 -5t-12.5 -8l-12 -4t-13 -4q-20 -6 -40.5 -9t-40.5 -3t-41 3t-41 9q-49 12 -90 53t-60 87q-2 2 -3 4t-1 4q-6 20 -11 40.5t-7 41.5q0 10 -1 20t-1 21zM41 276q0 -29 6 -58.5t14 -57.5q25 -63 84.5 -102.5t126.5 -45.5h4.5h4.5h12t12 2q29 2 57.5 12.5t53.5 22.5 q8 4 15 11.5t13 15.5q2 6 4.5 11t2.5 9l2 365q0 2 -1 3t-1 3q-10 23 -22.5 33t-35.5 18q-10 4 -20.5 7l-24.5 7q-18 6 -34.5 9.5t-32.5 3.5q-20 0 -39 -5t-37 -14q-12 -6 -26.5 -14t-28.5 -18q-57 -39 -83 -95.5t-26 -122.5z" />
<glyph unicode="b" horiz-adv-x="620" d="M23 6l2 1411l133 -2v-913q35 18 79 32.5t89 18.5h11h9q23 0 42.5 -3t37.5 -9q53 -20 94 -59.5t58 -92.5q8 -25 12 -49.5t4 -46.5q0 -63 -24.5 -122.5t-71.5 -102.5q-39 -35 -84 -51.5t-99 -16.5q-12 2 -26.5 4t-28.5 6q-27 8 -50.5 19.5t-39.5 31.5v-4t2 -4v-3v-3 q-2 -16 -8 -26.5t-17 -14.5q-8 2 -21 2h-30h-5h-5h-20.5h-18.5q-12 -2 -18 -2h-6zM168 104l31 -43q29 -20 62.5 -29t68.5 -9q31 0 59.5 7t54.5 19q53 39 87 94.5t34 124.5v3v3v1v4v7t2 5v7v5q-2 53 -23.5 96t-56.5 84q-25 25 -58.5 37t-70.5 15h-7h-7q-51 0 -99 -19.5 t-77 -58.5v-353z" />
<glyph unicode="c" horiz-adv-x="479" d="M23 276q0 23 3 44.5t9 44.5q20 78 80.5 133t148.5 57q33 0 58.5 -5t48.5 -15q18 -8 35.5 -21.5t37.5 -30.5h-2t-3 -1t-1 -3v-1v-1v-2v-2q2 -2 2 -4t-4 2t-12 11t-18 16q-2 2 -4.5 3t-4.5 3q-10 8 -20 15t-17 9q-18 8 -37.5 12.5t-41.5 4.5q-25 0 -47.5 -6.5t-43.5 -22.5 q-8 -6 -14 -17.5t-6 -27.5v-65.5v-71.5q0 -100 2 -186.5t4 -100.5q4 -16 40 -25.5t79 -9.5h20.5t18.5 2q33 4 57.5 19.5t46.5 34.5q2 0 2 1t2 1q4 4 7.5 7t7.5 5v-1v-1v-1v-1q0 -2 1 -3l3 -3h3h1l-13 -10q-12 -11 -30 -21q-4 -4 -8 -7t-8 -5q-10 -6 -20.5 -11.5t-18.5 -7.5 q-10 -2 -20.5 -5t-20.5 -3q-10 -2 -20.5 -2h-20.5q-43 0 -82 12.5t-74 34.5q-51 47 -80 105q-26 53 -26 112v12z" />
<glyph unicode="d" horiz-adv-x="610" d="M29 264q0 55 16 108.5t49 92.5q41 41 91.5 65.5t105.5 24.5q18 0 36.5 -3t37.5 -9q10 -6 19 -10.5l17 -8.5q2 0 3.5 -1t3.5 -1q10 -6 21 -12t26 -16v927h123v-1411h-115q-6 8 -8 15.5t-2 11.5v6t2 4v6v4q-41 -25 -87 -41t-94 -16q-20 0 -41.5 4t-44.5 12q-39 12 -70.5 44 t-54.5 69q-6 8 -10 15.5t-8 15.5q-8 25 -12 51.5t-4 52.5zM55 258q0 -23 3 -45.5t8 -44.5q2 -4 4 -7t2 -5q27 -47 67.5 -86t91.5 -47q6 0 11.5 -1.5t11.5 -1.5q6 -2 11 -2h11q53 0 99.5 22.5t79.5 59.5v344q-4 23 -22.5 36.5t-39.5 23.5l-1 1l-1 1q-6 2 -13 6t-13 8 q-18 6 -37 9t-39 3q-41 -2 -80 -16t-70 -45q-45 -39 -64.5 -96.5t-19.5 -116.5z" />
<glyph unicode="e" horiz-adv-x="516" d="M16 268q0 55 21.5 106.5t56.5 90.5q39 41 91.5 63.5t109.5 26.5h8h8h13.5t13.5 -2q25 -2 50.5 -9t47.5 -22q29 -25 43.5 -56.5t14.5 -66.5q0 -10 -1 -21t-6 -22q-29 -59 -88 -96t-127 -37q-6 -2 -11 -3t-9 -1h-9h-12h-9h-9h-5t-5 2h-13.5h-13.5h-12t-10 -2v-9v-11v-13.5 v-15.5q-2 -8 -2 -15.5v-15.5q2 -33 10 -61.5t37 -44.5q23 -8 45 -12.5t45 -4.5q47 0 93 16.5t81 43.5l8 -13q-35 -29 -84 -45t-102 -16q-18 0 -36 2t-34 6q-53 16 -96 49t-72 86q-14 31 -22.5 62t-8.5 61zM150 315q0 -20 1 -39.5t3 -35.5q12 -2 25.5 -2h27.5q16 0 33.5 1 t33.5 3q55 8 104.5 31.5t76.5 70.5q4 12 7 27.5t3 29.5q0 25 -7 48.5t-22 42.5q-27 20 -55.5 34.5t-63.5 14.5h-4h-6q-2 -2 -4 -2h-6q-6 -2 -14.5 -3t-14.5 -4q-37 -8 -67.5 -23t-40.5 -44q-4 -25 -6 -53.5t-4 -57.5v-19v-20z" />
<glyph unicode="f" horiz-adv-x="460" d="M20 676v29h111q0 471 40 595.5t165 124.5h4h4h2h4h5h7q23 -2 44.5 -9t35.5 -23q-4 0 -8 1t-8 1q-4 2 -8 2t-8 2q-12 2 -24.5 4t-27.5 2q-16 0 -35.5 -4t-41.5 -15q-18 -12 -21.5 -20t-5.5 -14v-3v-1q-2 -41 -4 -81t-4 -79q-2 -76 -2 -153t2 -163v-81.5v-85.5h141v-27 h-139v-676h-117v674h-111z" />
<glyph unicode="g" horiz-adv-x="612" d="M25 254q0 63 16 120.5t57 104.5q31 39 82 58.5t107 19.5q49 0 94 -15.5t76 -43.5v4v4q0 14 1 23.5t11 11.5h104l-2 -684q0 -76 -58 -127.5t-128 -61.5q-4 0 -8 -1t-8 -1h-4.5t-4.5 -2h-1h-1q-3 -1 -5 -1h-3q-4 1 -4 5q74 27 94.5 80t20.5 119q0 18 -1 37.5t-1 38.5 q-2 6 -2 13v13q-2 12 -2 24.5v24.5v8.5t2 8.5v9v9q-8 -4 -19.5 -11t-25.5 -13q-16 -10 -36 -18.5t-42 -10.5q-16 0 -31.5 -1t-32.5 -1q-41 0 -76.5 10t-66.5 39q-47 41 -74.5 92t-27.5 115zM53 260q0 -31 6.5 -60.5t20.5 -56.5q33 -53 83 -88t107 -39h4h5h4h4q49 0 92 22.5 t78 49.5v365q-8 16 -16.5 26t-16.5 17q-10 10 -21.5 15t-25.5 11q-6 0 -12.5 2t-12.5 4q-16 6 -33.5 8.5t-33.5 2.5q-47 0 -89 -21.5t-77 -60.5q-29 -35 -45.5 -82t-20.5 -96v-9.5v-9.5z" />
<glyph unicode="h" horiz-adv-x="593" d="M41 4v1419h117v-960q35 41 85 64.5t103 27.5q8 2 15.5 2h13.5q33 0 62.5 -7t56.5 -20q29 -14 43 -64t18 -110q4 -33 5 -66.5t1 -58.5v-227h-117v485q0 16 -12 26.5t-26 14.5q-6 2 -12.5 4.5t-12.5 2.5h-3h-5q-16 0 -35 -3.5t-37 -9.5q-43 -12 -82 -39.5t-61 -68.5v-412 h-117z" />
<glyph unicode="i" horiz-adv-x="198" d="M25 791q0 27 17 44t44 17q25 0 42 -17.5t17 -43.5q0 -25 -17 -42.5t-42 -17.5q-27 0 -44 17.5t-17 42.5zM35 0v555h106v-555h-106z" />
<glyph unicode="j" horiz-adv-x="227" d="M-66 -313q10 4 20.5 9t22.5 13q25 14 46.5 39t23.5 55q4 92 6 186.5t2 188.5v147.5t-2 145.5v43.5v40.5h111v-46.5v-47.5q1 -44 1 -90q0 -91 -3 -185q-4 -143 -27 -286q-4 -25 -8 -48.5t-10 -48.5q-10 -47 -51 -74.5t-86 -35.5q-10 -4 -22.5 -5t-23.5 -1zM45 788 q0 27 17.5 44.5t41.5 17.5q27 0 44.5 -17.5t17.5 -44.5q0 -25 -17.5 -42t-44.5 -17q-25 0 -42 17.5t-17 41.5z" />
<glyph unicode="k" horiz-adv-x="532" d="M33 6v1419h123v-1114l297 242v-31l-193 -160l254 -364l-25 2l-247 348l-84 -67v-275h-125z" />
<glyph unicode="l" horiz-adv-x="212" d="M33 0l2 1413l112 4v-1417h-114z" />
<glyph unicode="m" horiz-adv-x="989" d="M45 0v539h115v-76l12 8t12 10q6 4 13.5 9.5t15.5 11.5q29 23 63 39q30 14 71 14h11q16 0 35 -2t39 -6q37 -8 61.5 -24.5t45.5 -45.5q18 12 33.5 23.5t31.5 19.5q33 16 67 24.5t77 8.5h4h4q16 0 37.5 -2t44.5 -8q39 -8 72.5 -26.5t33.5 -49.5v-23v-63v-89v-104v-100v-88 h-5h-13h-18.5h-22.5h-20.5h-18.5v88v100v192v87q0 45 -22.5 57.5t-51.5 14.5h-12h-10h-4h-1h-9q-72 0 -127 -31q-58 -33 -64 -72q-2 -2 -2 -5v-5v-89v-93v-126v-118l-107 -2v485q-4 23 -16 38.5t-49 17.5q-63 0 -118.5 -31t-92.5 -88v-81v-93v-169v-77h-115z" />
<glyph unicode="n" horiz-adv-x="587" d="M29 0v543h110v-82q2 2 3 4t3 4q18 27 59.5 51.5t102.5 32.5q10 2 21.5 2h21.5h11.5h9.5q72 -6 130 -34.5t58 -63.5v-457h-115v457q0 39 -31.5 59.5t-70.5 24.5q-6 2 -11 2h-12h-5h-7q-6 0 -12 -1t-12 -1q-43 -10 -81 -34t-52 -52q-4 -6 -6.5 -13.5t-2.5 -13.5v-428h-112z " />
<glyph unicode="o" horiz-adv-x="628" d="M29 281v12t2 12q0 4 1 10.5t1 12.5q16 82 79.5 145.5t145.5 79.5q14 2 26.5 3t24.5 1q59 0 111.5 -18.5t95.5 -57.5q41 -49 61.5 -103t22.5 -118q0 -88 -48 -150.5t-126 -91.5q-25 -8 -49.5 -13t-50.5 -5q-45 0 -88 12.5t-80 32.5q-63 37 -96 99.5t-33 136.5zM160 313 q0 -59 6 -117.5t14 -113.5q12 -29 41 -42t62 -15q8 -2 15 -2h15h3h3q72 0 131.5 36.5t94.5 96.5q10 29 16 59.5t6 63.5v9v9q-4 45 -19.5 87t-45.5 75q-29 41 -74 59.5t-92 18.5h-11.5h-9.5q-37 -4 -71.5 -17.5t-63.5 -38.5q-10 -41 -15 -83t-5 -85z" />
<glyph unicode="p" horiz-adv-x="630" d="M39 -348v887h119q0 -2 1 -5l1 -2v-4v-4v-5v-5q-2 -6 -2 -9t4 -3q6 4 12 9t14 9q16 10 34 18.5t36 12.5t36.5 5t37.5 1q51 0 95 -14.5t83 -48.5q45 -43 66.5 -95.5t21.5 -111.5v-8.5v-6.5q-2 -4 -2 -8v-8v-4v-4q-4 -80 -53 -149.5t-127 -94.5q-18 -4 -37 -7t-37 -3 q-47 0 -92 13t-86 34v-389h-125zM164 90q0 -20 19.5 -33.5t41.5 -23.5q4 -2 7.5 -3t7.5 -3q23 -6 49 -10.5t53 -4.5q29 0 55.5 5.5t46.5 15.5q47 23 76 68.5t43 95.5q4 14 8 28.5t7 26.5v7t2 7v7v8q-2 57 -23.5 105t-56.5 87q-33 29 -69 47.5t-81 18.5h-6h-8h-3h-1h-3h-3 q-8 0 -18.5 -1t-18.5 -1q-47 -6 -86 -28t-39 -67v-352z" />
<glyph unicode="q" horiz-adv-x="630" d="M29 278.5v8.5q0 59 22.5 112.5t65.5 94.5q37 33 82 49t96 16q18 0 36.5 -2t37.5 -6q25 -6 44 -15.5t38 -21.5q4 -2 7 -4t5 -4q4 2 6 5t2 9q2 4 3 7t1 8q8 2 22.5 3t28.5 1h17.5h17.5h19h8v-887h-125v389q-39 -20 -86 -33.5t-94 -13.5q-8 0 -17.5 1t-17.5 1q-10 2 -18.5 4 t-18.5 4q-78 25 -127 94.5t-53 149.5v4v4v8v8q-2 2 -2 6.5zM47 271q0 -3 2 -7v-5v-7q2 -12 6 -26.5t8 -28.5q14 -49 43 -95.5t78 -68.5q23 -10 49.5 -15.5t53.5 -5.5t52.5 4t47.5 11q4 2 7 3t7 3q23 10 42.5 23.5t19.5 33.5v352q0 47 -40 68.5t-89 26.5q-8 2 -17.5 2h-17.5 h-1h-3h-3h-1h-4h-4h-4.5h-4.5q-43 0 -77.5 -19.5t-69.5 -46.5q-35 -39 -57.5 -88t-22.5 -109v-5z" />
<glyph unicode="r" horiz-adv-x="481" d="M20 0v543l138 2v-68q18 16 31.5 28.5t25.5 22.5q14 10 29.5 16.5t38.5 8.5h7t7 2h6h6q47 -2 85 -19.5t55 -58.5q6 -14 9 -29.5t3 -29.5q0 -8 -1 -17.5t-3 -17.5q-4 -8 -8.5 -17.5t-10.5 -17.5q-20 -31 -45.5 -43t-54.5 -20q-8 0 -14.5 -2t-12.5 -4l-20 8q10 2 22.5 5 t24.5 5q31 10 58.5 26.5t37.5 51.5q4 12 6 24.5t2 24.5q0 23 -9 44t-27 40q-20 20 -45 26.5t-54 6.5h-5h-5h-6h-6q-10 0 -23.5 -5.5t-28.5 -13.5q-20 -10 -37.5 -26.5t-29.5 -32.5q-6 -8 -10 -18.5t-4 -18.5v-426h-132z" />
<glyph unicode="s" horiz-adv-x="415" d="M14 71v1h3t3 2q2 0 4.5 2t2.5 6q14 -18 30.5 -28.5t36.5 -18.5q2 -2 4 -3t4 -1q18 -6 36 -11.5t34 -9.5q8 0 17.5 -1t17.5 -1q23 0 44 5t42 18q16 10 24.5 26.5t8.5 34.5v5v5q-2 6 -3 11.5t-4 9.5q-23 37 -61.5 64.5t-81.5 52.5l-10 5t-10 7q-55 33 -98.5 68.5 t-43.5 87.5q0 16 5.5 32.5t13.5 34.5q23 41 59.5 57.5t81.5 20.5q4 0 8 1t8 1h8.5h8.5q41 0 76.5 -13.5t56.5 -37.5q-2 0 -3 -1t-3 -1l-3 -3l-1 -1q-4 4 -8.5 7t-8.5 7q-10 8 -22 15.5t-27 11.5q-10 2 -21.5 3t-23.5 3h-11h-11q-39 0 -71 -13.5t-36 -48.5v-9v-9 q0 -10 2 -19.5t10 -19.5q23 -29 61 -55.5t79 -51.5l6 -3l6 -3q57 -35 104.5 -72.5t47.5 -84.5q0 -14 -6.5 -30.5t-18.5 -33.5q-33 -45 -82 -68.5t-104 -23.5q-23 0 -46.5 4t-46.5 12q-20 8 -39.5 18.5t-31.5 22.5q-4 2 -7.5 5.5l-5.5 5.5q-4 2 -4 3z" />
<glyph unicode="t" horiz-adv-x="391" d="M18 713v20h105v430l123 45v-475h129v-20h-129v-713h-123v713h-105z" />
<glyph unicode="u" horiz-adv-x="610" d="M35 96v459h121v-459q0 -47 20.5 -66.5t120.5 -19.5q12 0 24.5 1t24.5 5q41 10 76 36t35 69v434h102v-553h-8h-8h-16.5h-16.5h-38h-15v74q-4 -6 -10.5 -14.5t-16.5 -14.5q-20 -16 -52 -29.5t-79 -15.5h-10h-15q-6 -2 -14 -2h-18q-16 0 -34 1t-34 3q-53 4 -96 24.5 t-43 67.5z" />
<glyph unicode="v" horiz-adv-x="649" d="M29 555l125 -2l237 -408l209 412l23 -4l-283 -553z" />
<glyph unicode="w" horiz-adv-x="968" d="M45 553l121 2l196 -399l195 393l207 -365l143 369l21 2l-211 -555l-219 387l-189 -383z" />
<glyph unicode="x" horiz-adv-x="641" d="M10 0l242 270l-225 285h155l158 -203l172 203h20l-184 -215l264 -328h-155l-197 246l-231 -258h-19z" />
<glyph unicode="y" horiz-adv-x="626" d="M49 104v447h123v-97v-214v-88v-80q0 -20 17.5 -32.5t35.5 -16.5q4 -2 7.5 -3.5t7.5 -1.5q6 -2 12 -2h12q12 0 24.5 2t24.5 7q35 12 67 33.5t50 43.5l3 3t1 4l-2 444q10 0 21.5 -1t23.5 -3h10.5h12.5h22t19 2h11h5l2 -477q0 -55 -4 -99.5t-12 -87.5q-2 -20 -7.5 -40.5 t-11.5 -43.5q-33 -61 -87 -97t-120 -42q8 6 16.5 9t14.5 5q6 4 13.5 7.5t13.5 11.5q41 37 52 98.5t11 128.5v18.5v18.5v10v9q-2 14 -2 27v26v24.5t2 24.5q-25 -33 -82 -57.5t-120 -24.5h-6.5h-4.5q-29 0 -57.5 5t-52.5 20q-12 6 -23.5 17t-21.5 21q-8 12 -14.5 23.5 t-6.5 17.5z" />
<glyph unicode="z" horiz-adv-x="540" d="M18 -2l355 534l-307 3v18h456l-332 -533h324l2 -22h-498z" />
<glyph unicode="{" />
<glyph unicode="|" horiz-adv-x="202" d="M66 2v1399h61v-1399h-61z" />
<glyph unicode="}" />
<glyph unicode="~" horiz-adv-x="587" d="M90 758q41 33 73 45t58 12q31 0 54.5 -14.5t43.5 -32.5q6 -4 11.5 -8t11.5 -10q14 -10 28.5 -18.5t32.5 -8.5q16 0 34 8t38 27q-35 -31 -62.5 -43.5t-50.5 -12.5q-29 0 -50 14.5t-42 33.5l-1 1l-1 1q-18 16 -39.5 30.5t-48.5 14.5q-18 0 -39.5 -9.5t-50.5 -29.5z" />
<glyph unicode="&#xa1;" horiz-adv-x="284" d="M37 1298q0 35 25.5 61.5t62.5 26.5q35 0 60.5 -26.5t25.5 -61.5q0 -37 -25.5 -62.5t-60.5 -25.5q-37 0 -62.5 26t-25.5 62zM63 31l68 1065h12q10 -100 16.5 -206t10.5 -212q2 -35 4 -71t2 -70q8 -129 18.5 -256t28.5 -250h-160z" />
<glyph unicode="&#xa2;" horiz-adv-x="563" d="M59 483q0 47 15.5 93.5t44.5 85.5q14 29 40.5 42t55.5 21q4 0 9 1t9 3q37 10 65 25.5t28 56.5q0 6 -1 13t-3 16h14q-4 -12 -6 -21.5t-2 -19.5q0 -31 21.5 -40t47.5 -16q4 0 6.5 -1t4.5 -1q27 -6 48 -16t29 -37q-10 4 -21 10.5t-24 12.5q-18 10 -37.5 18t-40.5 8h-5h-7 q-2 -33 -3 -65.5t-1 -65.5q0 -14 -1 -28.5t-1 -28.5q-2 -72 -4 -144.5t-6 -152.5q10 -4 19 -6t18 -2q23 0 43 10t41 22q10 6 21 13.5t22 11.5q-14 -29 -43 -42t-62 -26h-1h-1q-14 -4 -29.5 -10t-27.5 -12v-9v-9q0 -23 -1 -45.5t-3 -45.5q-2 -8 -2 -15t-2 -15q0 -14 -1 -28.5 t-3 -31.5h-15l-12 213q-82 10 -142.5 59.5t-86.5 131.5q-2 16 -4.5 33.5t-2.5 33.5zM195 502q0 -35 1 -71t3 -71q0 -18 1 -34.5t1 -32.5q12 -16 31.5 -27.5t39.5 -13.5q2 -2 5.5 -2h7.5h1t3 2h3h3l6 479q-4 0 -8 -1t-8 -1h-5.5h-5.5q-16 -2 -33.5 -8t-27.5 -25 q-10 -45 -14 -94t-4 -100z" />
<glyph unicode="&#xa3;" />
<glyph unicode="&#xa4;" />
<glyph unicode="&#xa5;" />
<glyph unicode="&#xa6;" />
<glyph unicode="&#xa7;" />
<glyph unicode="&#xa8;" horiz-adv-x="516" d="M125 707q0 18 13.5 32.5t31.5 14.5q20 0 33.5 -14.5t13.5 -32.5t-13.5 -31.5t-33.5 -13.5q-18 0 -31.5 13t-13.5 32zM317 707q0 18 13.5 32.5t31.5 14.5q20 0 34 -14.5t14 -32.5t-13.5 -31.5t-34.5 -13.5q-18 0 -31.5 13t-13.5 32z" />
<glyph unicode="&#xa9;" horiz-adv-x="698" d="M49 262q0 123 88 211t211 88t212 -88t89 -211t-89 -210t-212 -87t-211 87t-88 210zM78 262q0 -111 79 -189.5t191 -78.5q113 0 193 79t80 189q0 113 -80 191.5t-193 78.5t-191.5 -78.5t-78.5 -191.5zM209 262q0 6 1 13.5t1 13.5q2 6 3 13t3 13q12 47 49 81t90 34 q20 0 37 -3t31 -9q10 -6 19.5 -12.5t21.5 -16.5q-2 0 -3 -1t-1 -3t1 -2h1v-3t-2 1l-7 7t-12 9q-2 2 -4 3t-2 3q-6 4 -12 7.5t-10 5.5q-10 4 -22.5 7t-24.5 3q-14 0 -28.5 -4t-27.5 -14q-4 -2 -8 -9.5t-4 -17.5v-40v-44q0 -59 1 -112.5t3 -61.5q2 -10 23.5 -16.5t48.5 -6.5h3 h3q4 2 9 2h9q18 2 32.5 11.5t27.5 19.5q2 2 6 5t6 5q0 -2 1 -3l3 -3h1h1l-7 -5t-17 -13q-2 0 -5.5 -2t-5.5 -4q-8 -4 -14 -7.5t-10 -3.5q-6 -2 -13.5 -4t-13.5 -2q-6 -2 -13 -2h-13q-25 0 -47.5 7.5t-43.5 21.5q-31 29 -48 64.5t-17 74.5z" />
<glyph unicode="&#xaa;" />
<glyph unicode="&#xab;" />
<glyph unicode="&#xac;" />
<glyph unicode="&#xad;" horiz-adv-x="538" />
<glyph unicode="&#xae;" horiz-adv-x="847" d="M49 348q0 154 110.5 264.5t264.5 110.5t264.5 -110.5t110.5 -264.5t-110.5 -262.5t-264.5 -108.5t-264.5 109t-110.5 262zM86 348q0 -137 99.5 -237.5t238.5 -100.5t238.5 100.5t99.5 237.5q0 141 -99.5 240.5t-238.5 99.5t-238.5 -99.5t-99.5 -240.5zM281 143v471h21h22 h7h7q68 -2 130 -14t105 -65q23 -25 32 -54.5t9 -64.5q0 -8 -1 -19.5t-3 -21.5q-12 -45 -46 -78t-77 -49q2 -6 5.5 -11.5t7.5 -11.5q20 -31 50 -56.5t71 -25.5h2v-4h-1h-4h-3h-1q-47 0 -77.5 30t-51.5 64q-2 2 -3 3.5t-1 3.5q-4 2 -9 2h-11h-9.5h-9.5q-4 -2 -9 -2h-9 q-10 0 -19.5 2t-17.5 10q-8 4 -12 13t-4 18q0 4 1 7t3 5q8 6 16 9t17 3h3h3q2 -2 3 -2h3q18 -8 32.5 -19.5t26.5 -29.5q4 0 9.5 2t9.5 4q27 8 51 26.5t39 45.5q10 16 14 37.5t2 42.5v9v11q-2 14 -5 29.5t-7 28.5q-27 57 -80 81.5t-111 28.5q-10 2 -20 2h-21h-5h-5h-5h-5 v-461h-59zM381 274q4 -14 17.5 -18t27.5 -4q2 -2 3 -2h3h3h3h4h4h2h5q4 0 8 2t4 8q-10 16 -25.5 27.5t-38.5 11.5h-3h-1q-2 -2 -3 -2h-3q-4 -2 -8 -8t-2 -15z" />
<glyph unicode="&#xaf;" horiz-adv-x="538" />
<glyph unicode="&#xb0;" horiz-adv-x="331" d="M86 1245q0 37 27.5 64.5t64.5 27.5q39 0 65.5 -27.5t26.5 -64.5q0 -39 -26.5 -65.5t-65.5 -26.5q-37 0 -64.5 26.5t-27.5 65.5zM104 1245q0 -31 23 -52.5t51 -21.5q31 0 52.5 21.5t21.5 52.5q0 29 -21.5 51.5t-52.5 22.5q-29 0 -51.5 -22.5t-22.5 -51.5z" />
<glyph unicode="&#xb1;" />
<glyph unicode="&#xb2;" />
<glyph unicode="&#xb3;" />
<glyph unicode="&#xb4;" horiz-adv-x="593" d="M160 799l246 221l12 -74z" />
<glyph unicode="&#xb5;" />
<glyph unicode="&#xb6;" horiz-adv-x="1124" d="M51 1419h39h41q70 2 146.5 1t154.5 -7q172 -14 330 -76.5t248 -224.5q35 -53 53 -118.5t20 -133.5v-11v-11q0 -59 -11 -115.5t-34 -106.5q-47 -119 -154.5 -197.5t-226.5 -109.5q-16 -4 -31.5 -7t-31.5 -5q-20 -4 -42 -6t-44 -2q-18 0 -36.5 1t-37.5 3q-20 0 -38.5 1 t-37.5 1v-305h-26v307q-8 0 -17.5 1t-17.5 1q-10 0 -18.5 1t-16.5 1v-299h-209zM260 338q12 -6 25.5 -10t27.5 -6q4 -2 9.5 -2.5t9.5 -0.5v1074q-8 0 -17.5 1t-17.5 1q-10 0 -18.5 1t-18.5 1v-1059zM358 315h41h43q20 -2 41 -2h41q150 0 281 81t201 218q20 39 31.5 87.5 t13.5 97.5v12v12q0 53 -10.5 106.5t-26.5 98.5q-25 76 -86.5 142.5t-130.5 113.5q-12 6 -23.5 14.5t-23.5 14.5q-29 10 -55.5 19t-53.5 18q-61 18 -129 27t-154 16v-1076z" />
<glyph unicode="&#xb7;" horiz-adv-x="538" />
<glyph unicode="&#xb8;" />
<glyph unicode="&#xb9;" />
<glyph unicode="&#xba;" />
<glyph unicode="&#xbb;" />
<glyph unicode="&#xbc;" />
<glyph unicode="&#xbd;" />
<glyph unicode="&#xbe;" />
<glyph unicode="&#xbf;" horiz-adv-x="819" d="M74 399q0 92 54 168t124 148q10 10 19.5 20t19.5 21q59 59 112.5 122.5t81.5 139.5v4t2 6v5v5q0 4 -1 8.5t-1 8.5q-2 18 -10 34.5t-26 20.5l-58 -10q-6 6 -8 15t-2 18q0 10 2 18l4 16q18 16 37.5 29.5t44.5 13.5h8t8 -2q29 -8 45.5 -32.5t14.5 -53.5v-5v-7 q-14 -90 -60.5 -172t-99.5 -162q-10 -16 -21.5 -32.5t-21.5 -32.5q-49 -78 -86 -156t-37 -162q2 -43 12.5 -86t36.5 -90q41 -53 98.5 -75.5t120.5 -22.5q20 0 42 2t42 6q4 2 9.5 4t11.5 4q33 12 61.5 33.5t38.5 54.5q2 4 3 7t1 8q2 2 2 6v6q0 12 -4 24.5t-10 22.5q0 4 -1 6 t-3 4h-3h-1q-14 0 -20.5 10.5t-6.5 24.5q0 10 3 18.5t7 14.5q6 8 17.5 13t21.5 7h6.5h4.5q10 0 18 -1t16 -5q20 -10 28.5 -25.5t10.5 -33.5v-5v-6v-7v-7q-2 -10 -4 -20.5t-4 -18.5q-37 -92 -118 -129t-171 -43q-106 0 -206.5 26.5t-163.5 117.5q-20 45 -30.5 84.5 t-10.5 76.5zM387 1358q0 33 25.5 57.5t58.5 24.5t57.5 -24.5t24.5 -57.5q0 -35 -23.5 -59.5t-58.5 -24.5t-59.5 24.5t-24.5 59.5z" />
<glyph unicode="&#xc0;" horiz-adv-x="1781" d="M53 0l213 498h-198v28h208l375 899l625 -1425h-197l-215 498h-565l-217 -498h-29zM309 526h543l-272 641zM563 1561l10 63l215 -192z" />
<glyph unicode="&#xc1;" horiz-adv-x="1781" d="M53 0l213 498h-198v28h208l375 899l625 -1425h-197l-215 498h-565l-217 -498h-29zM309 526h543l-272 641zM580 1579l245 221l13 -74z" />
<glyph unicode="&#xc2;" horiz-adv-x="1325" d="M53 0l213 498h-198v28h208l375 899l625 -1425h-197l-215 498h-565l-217 -498h-29zM309 526h543l-272 641zM449 1419l223 201l36 -30q35 -31 76 -70q43 -37 78 -69l35 -32l-225 129z" />
<glyph unicode="&#xc3;" horiz-adv-x="1325" d="M53 0l213 498h-198v28h208l375 899l625 -1425h-197l-215 498h-565l-217 -498h-29zM309 526h543l-272 641zM479 1505q41 33 73 45.5t58 12.5q31 0 54.5 -14.5t44.5 -32.5q6 -4 11 -8.5t11 -10.5q14 -10 28.5 -18.5t33.5 -8.5q16 0 33.5 8.5t37.5 26.5q-35 -31 -62.5 -43 t-49.5 -12q-29 0 -50.5 14.5t-42.5 32.5l-1 1l-1 1q-18 16 -39.5 30.5t-48.5 14.5q-18 0 -39.5 -9t-50.5 -30z" />
<glyph unicode="&#xc4;" horiz-adv-x="1314" d="M53 0l213 498h-198v28h208l375 899l625 -1425h-197l-215 498h-565l-217 -498h-29zM309 526h543l-272 641zM539 1540q0 18 13 32.5t32 14.5q20 0 33.5 -14t13.5 -33q0 -18 -13.5 -31.5t-33.5 -13.5q-18 0 -31.5 13.5t-13.5 31.5zM731 1540q0 18 13.5 32.5t31.5 14.5 q20 0 33.5 -14t13.5 -33q0 -18 -13 -31.5t-34 -13.5q-18 0 -31.5 13.5t-13.5 31.5z" />
<glyph unicode="&#xc5;" horiz-adv-x="1314" d="M53 0l213 498h-198v28h208l375 899l625 -1425h-197l-215 498h-565l-217 -498h-29zM309 526h543l-272 641zM559 1581q0 37 27.5 64.5t64.5 27.5q39 0 65.5 -27.5t26.5 -64.5q0 -39 -26.5 -64.5t-65.5 -25.5q-37 0 -64.5 25.5t-27.5 64.5zM578 1581q0 -31 22.5 -52.5 t50.5 -21.5q31 0 52.5 21.5t21.5 52.5q0 29 -21.5 52.5t-52.5 23.5q-29 0 -51 -23.5t-22 -52.5z" />
<glyph unicode="&#xc6;" horiz-adv-x="1517" d="M102 0l213 498h-198v28h207l389 899h116.5h128.5h290h132v-26h-101h-222h-132.5h-111.5v-428h651l-2 -29h-649v-909h590v-35l-768 2v498h-287l-219 -498h-27zM352 522h283v656z" />
<glyph unicode="&#xc7;" horiz-adv-x="1374" d="M61 674q0 20 1 40.5t4 41.5q4 41 12 83t20 81q49 190 215 337.5t365 165.5q16 2 33.5 2h31.5q152 0 283 -50t217 -177l-12 -8q-86 104 -211 161.5t-260 55.5q-45 0 -90 -6t-90 -21q-186 -80 -245 -245.5t-65 -350.5q-2 -51 -2 -103t2 -103v-21.5v-24.5q0 -8 2 -16t2 -16 q20 -131 84 -251t179 -186q51 -27 105 -39t112 -12h20t21 2q96 6 188 44t164 96l5 5l5 5q43 45 83 94t60 107h13q-43 -145 -167 -235.5t-265 -119.5q-4 -2 -8.5 -3t-8.5 -1q0 -20 -20.5 -55t-59.5 -74q-41 -41 -101 -79t-138 -58q49 27 74.5 58.5t35.5 64.5q8 25 10.5 47 t2.5 43v13v14q-2 8 -2 14v10q-125 12 -237 61.5t-202 145.5q-84 96 -125 216t-41 247z" />
<glyph unicode="&#xc8;" horiz-adv-x="940" d="M55 1425h142.5h162.5h163h141h101h38v-26h-101h-223h-132h-111v-428h651l-2 -29h-649v-909h589v-35l-768 2zM330 1561l10 63l215 -192z" />
<glyph unicode="&#xc9;" horiz-adv-x="940" d="M55 1425h142.5h162.5h163h141h101h38v-26h-101h-223h-132h-111v-428h651l-2 -29h-649v-909h589v-35l-768 2zM387 1579l246 221l12 -74z" />
<glyph unicode="&#xca;" horiz-adv-x="962" d="M55 1425h142.5h162.5h163h141h101h38v-26h-101h-223h-132h-111v-428h651l-2 -29h-649v-909h589v-35l-768 2zM203 1419l223 201l36 -30q36 -31 77 -70q43 -37 77 -69l35 -32l-225 129z" />
<glyph unicode="&#xcb;" horiz-adv-x="929" d="M55 1425h142.5h162.5h163h141h101h38v-26h-101h-223h-132h-111v-428h651l-2 -29h-649v-909h589v-35l-768 2zM303 1540q0 18 13.5 32.5t31.5 14.5q20 0 33.5 -14t13.5 -33q0 -18 -13 -31.5t-34 -13.5q-18 0 -31.5 13.5t-13.5 31.5zM496 1540q0 18 13 32.5t32 14.5 q20 0 33.5 -14t13.5 -33q0 -18 -13.5 -31.5t-33.5 -13.5q-18 0 -31.5 13.5t-13.5 31.5z" />
<glyph unicode="&#xcc;" horiz-adv-x="1781" d="M539 1561l10 63l213 -192z" />
<glyph unicode="&#xcd;" horiz-adv-x="299" d="M47 0v1417h203v-1419zM88 1579l246 221l12 -74z" />
<glyph unicode="&#xce;" horiz-adv-x="321" d="M-72 0v1417h203v-1419zM55 1419l224 201l35 -30q36 -31 77 -70q43 -37 78 -69l35 -32l-225 129z" />
<glyph unicode="&#xcf;" horiz-adv-x="309" d="M18 0v1417h203v-1419zM66 1540q0 18 13 32.5t32 14.5q20 0 33.5 -14t13.5 -33q0 -18 -13.5 -31.5t-33.5 -13.5q-18 0 -31.5 13.5t-13.5 31.5zM258 1540q0 18 13.5 32.5t31.5 14.5q20 0 33.5 -14t13.5 -33q0 -18 -13 -31.5t-34 -13.5q-18 0 -31.5 13.5t-13.5 31.5z" />
<glyph unicode="&#xd0;" />
<glyph unicode="&#xd1;" horiz-adv-x="1122" d="M55 6v1401l975 -567v573h35v-1409h-35v619l-936 557v-1174h-39zM371 1495q41 33 72.5 45t58.5 12q31 0 54.5 -14t43.5 -33q6 -4 11 -8t12 -10q14 -10 28.5 -18.5t32.5 -8.5q16 0 33.5 8.5t38.5 26.5q-35 -31 -62.5 -43t-50.5 -12q-29 0 -50.5 14t-41.5 33l-1 1l-1 1 q-18 16 -40 30.5t-48 14.5q-18 0 -40 -9t-50 -30z" />
<glyph unicode="&#xd2;" horiz-adv-x="1454" d="M68 680v25.5t2 27.5q8 137 60 268.5t165 229.5q96 90 220 142t261 52q18 0 35.5 -1t34.5 -3q16 0 33.5 -3t35.5 -7q133 -29 248 -119t178 -217q41 -76 59.5 -166t18.5 -182v-12v-13q-4 -115 -34.5 -226t-84.5 -200q-94 -143 -236 -209.5t-304 -66.5q-39 0 -81 4t-83 12 q-188 41 -334.5 183.5t-183.5 335.5q-4 35 -7 71.5t-3 73.5zM264 723q4 -100 22.5 -196.5t45.5 -180.5q2 -8 5 -17.5t7 -17.5q41 -100 131 -184t201 -96q14 -2 27.5 -4t27.5 -4q12 0 25.5 -1.5t27.5 -1.5q152 0 284 73t214 204q53 84 80 188.5t27 210.5q0 113 -27 220.5 t-76 195.5q-68 109 -169 184.5t-222 100.5q-12 2 -25.5 4t-27.5 2q-14 2 -27.5 2h-26.5q-94 0 -182 -29.5t-157 -97.5q-100 -98 -142.5 -236.5t-42.5 -285.5v-16.5v-16.5zM692 1561l10 63l216 -192z" />
<glyph unicode="&#xd3;" horiz-adv-x="1781" d="M68 680v25.5t2 27.5q8 137 60 268.5t165 229.5q96 90 220 142t261 52q18 0 35.5 -1t34.5 -3q16 0 33.5 -3t35.5 -7q133 -29 248 -119t178 -217q41 -76 59.5 -166t18.5 -182v-12v-13q-4 -115 -34.5 -226t-84.5 -200q-94 -143 -236 -209.5t-304 -66.5q-39 0 -81 4t-83 12 q-188 41 -334.5 183.5t-183.5 335.5q-4 35 -7 71.5t-3 73.5zM264 723q4 -100 22.5 -196.5t45.5 -180.5q2 -8 5 -17.5t7 -17.5q41 -100 131 -184t201 -96q14 -2 27.5 -4t27.5 -4q12 0 25.5 -1.5t27.5 -1.5q152 0 284 73t214 204q53 84 80 188.5t27 210.5q0 113 -27 220.5 t-76 195.5q-68 109 -169 184.5t-222 100.5q-12 2 -25.5 4t-27.5 2q-14 2 -27.5 2h-26.5q-94 0 -182 -29.5t-157 -97.5q-100 -98 -142.5 -236.5t-42.5 -285.5v-16.5v-16.5zM676 1579l246 221l12 -74z" />
<glyph unicode="&#xd4;" horiz-adv-x="1484" d="M68 680v25.5t2 27.5q8 137 60 268.5t165 229.5q96 90 220 142t261 52q18 0 35.5 -1t34.5 -3q16 0 33.5 -3t35.5 -7q133 -29 248 -119t178 -217q41 -76 59.5 -166t18.5 -182v-12v-13q-4 -115 -34.5 -226t-84.5 -200q-94 -143 -236 -209.5t-304 -66.5q-39 0 -81 4t-83 12 q-188 41 -334.5 183.5t-183.5 335.5q-4 35 -7 71.5t-3 73.5zM264 723q4 -100 22.5 -196.5t45.5 -180.5q2 -8 5 -17.5t7 -17.5q41 -100 131 -184t201 -96q14 -2 27.5 -4t27.5 -4q12 0 25.5 -1.5t27.5 -1.5q152 0 284 73t214 204q53 84 80 188.5t27 210.5q0 113 -27 220.5 t-76 195.5q-68 109 -169 184.5t-222 100.5q-12 2 -25.5 4t-27.5 2q-14 2 -27.5 2h-26.5q-94 0 -182 -29.5t-157 -97.5q-100 -98 -142.5 -236.5t-42.5 -285.5v-16.5v-16.5zM565 1419l223 201l36 -30q36 -31 77 -70q43 -37 78 -69l35 -32l-226 129z" />
<glyph unicode="&#xd5;" horiz-adv-x="1464" d="M68 680v25.5t2 27.5q8 137 60 268.5t165 229.5q96 90 220 142t261 52q18 0 35.5 -1t34.5 -3q16 0 33.5 -3t35.5 -7q133 -29 248 -119t178 -217q41 -76 59.5 -166t18.5 -182v-12v-13q-4 -115 -34.5 -226t-84.5 -200q-94 -143 -236 -209.5t-304 -66.5q-39 0 -81 4t-83 12 q-188 41 -334.5 183.5t-183.5 335.5q-4 35 -7 71.5t-3 73.5zM264 723q4 -100 22.5 -196.5t45.5 -180.5q2 -8 5 -17.5t7 -17.5q41 -100 131 -184t201 -96q14 -2 27.5 -4t27.5 -4q12 0 25.5 -1.5t27.5 -1.5q152 0 284 73t214 204q53 84 80 188.5t27 210.5q0 113 -27 220.5 t-76 195.5q-68 109 -169 184.5t-222 100.5q-12 2 -25.5 4t-27.5 2q-14 2 -27.5 2h-26.5q-94 0 -182 -29.5t-157 -97.5q-100 -98 -142.5 -236.5t-42.5 -285.5v-16.5v-16.5zM563 1505q41 33 73 45.5t58 12.5q31 0 54.5 -14.5t44.5 -32.5q6 -4 11 -8.5t11 -10.5 q14 -10 28.5 -18.5t33.5 -8.5q16 0 33.5 8.5t37.5 26.5q-35 -31 -62.5 -43t-49.5 -12q-29 0 -50.5 14.5t-42.5 32.5l-1 1l-1 1q-18 16 -39.5 30.5t-48.5 14.5q-18 0 -39.5 -9t-50.5 -30z" />
<glyph unicode="&#xd6;" horiz-adv-x="1484" d="M68 680v25.5t2 27.5q8 137 60 268.5t165 229.5q96 90 220 142t261 52q18 0 35.5 -1t34.5 -3q16 0 33.5 -3t35.5 -7q133 -29 248 -119t178 -217q41 -76 59.5 -166t18.5 -182v-12v-13q-4 -115 -34.5 -226t-84.5 -200q-94 -143 -236 -209.5t-304 -66.5q-39 0 -81 4t-83 12 q-188 41 -334.5 183.5t-183.5 335.5q-4 35 -7 71.5t-3 73.5zM264 723q4 -100 22.5 -196.5t45.5 -180.5q2 -8 5 -17.5t7 -17.5q41 -100 131 -184t201 -96q14 -2 27.5 -4t27.5 -4q12 0 25.5 -1.5t27.5 -1.5q152 0 284 73t214 204q53 84 80 188.5t27 210.5q0 113 -27 220.5 t-76 195.5q-68 109 -169 184.5t-222 100.5q-12 2 -25.5 4t-27.5 2q-14 2 -27.5 2h-26.5q-94 0 -182 -29.5t-157 -97.5q-100 -98 -142.5 -236.5t-42.5 -285.5v-16.5v-16.5zM614 1540q0 18 13.5 32.5t31.5 14.5q20 0 34 -14t14 -33q0 -18 -13.5 -31.5t-34.5 -13.5 q-18 0 -31.5 13.5t-13.5 31.5zM807 1540q0 18 13.5 32.5t31.5 14.5q20 0 33.5 -14t13.5 -33q0 -18 -13.5 -31.5t-33.5 -13.5q-18 0 -31.5 13.5t-13.5 31.5z" />
<glyph unicode="&#xd7;" />
<glyph unicode="&#xd8;" horiz-adv-x="1781" d="M68 680v25.5t2 27.5q8 137 60 268.5t165 229.5q96 90 220 142t261 52q18 0 35.5 -1t34.5 -3q16 0 33.5 -3t35.5 -7q133 -29 248 -119t178 -217q41 -76 59.5 -166t18.5 -182v-12v-13q-4 -115 -34.5 -226t-84.5 -200q-94 -143 -236 -209.5t-304 -66.5q-39 0 -81 4t-83 12 q-188 41 -334.5 183.5t-183.5 335.5q-4 35 -7 71.5t-3 73.5zM264 723q4 -100 22.5 -196.5t45.5 -180.5q2 -8 5 -17.5t7 -17.5q41 -100 131 -184t201 -96q14 -2 27.5 -4t27.5 -4q12 0 25.5 -1.5t27.5 -1.5q152 0 284 73t214 204q53 84 80 188.5t27 210.5q0 113 -27 220.5 t-76 195.5q-68 109 -169 184.5t-222 100.5q-12 2 -25.5 4t-27.5 2q-14 2 -27.5 2h-26.5q-94 0 -182 -29.5t-157 -97.5q-100 -98 -142.5 -236.5t-42.5 -285.5v-16.5v-16.5zM315 -61l713 1611h119l-715 -1611h-117z" />
<glyph unicode="&#xd9;" horiz-adv-x="1185" d="M53 1415q12 -2 26.5 -4t31.5 -4h14h14q20 0 39 1t31 3q14 0 23 1l8 1q-2 -82 -2 -184.5v-208.5v-219.5v-190.5q2 -82 2 -131v-49q0 -131 68.5 -231.5t187.5 -143.5q37 -14 76.5 -21t78.5 -7q76 2 147.5 25.5t123.5 68.5q113 90 148.5 222t41.5 273q2 35 2 70v70l4 655 l23 -8v-142.5t2 -134.5t2 -129v-127v-19v-20q0 -106 -7.5 -215.5t-25.5 -230.5q-31 -125 -128 -231.5t-226 -135.5q-37 -8 -75 -12t-77 -4q-88 0 -174 24.5t-158 73.5q-150 109 -181.5 275t-33.5 346q-4 82 -4 168v174v9v9q2 39 2 78v78v29.5v29.5q0 31 -1 60.5t-3 58.5z M543 1561l10 63l215 -192z" />
<glyph unicode="&#xda;" horiz-adv-x="1781" d="M53 1415q12 -2 26.5 -4t31.5 -4h14h14q20 0 39 1t31 3q14 0 23 1l8 1q-2 -82 -2 -184.5v-208.5v-219.5v-190.5q2 -82 2 -131v-49q0 -131 68.5 -231.5t187.5 -143.5q37 -14 76.5 -21t78.5 -7q76 2 147.5 25.5t123.5 68.5q113 90 148.5 222t41.5 273q2 35 2 70v70l4 655 l23 -8v-142.5t2 -134.5t2 -129v-127v-19v-20q0 -106 -7.5 -215.5t-25.5 -230.5q-31 -125 -128 -231.5t-226 -135.5q-37 -8 -75 -12t-77 -4q-88 0 -174 24.5t-158 73.5q-150 109 -181.5 275t-33.5 346q-4 82 -4 168v174v9v9q2 39 2 78v78v29.5v29.5q0 31 -1 60.5t-3 58.5z M612 1579l246 221l12 -74z" />
<glyph unicode="&#xdb;" horiz-adv-x="1185" d="M53 1415q12 -2 26.5 -4t31.5 -4h14h14q20 0 39 1t31 3q14 0 23 1l8 1q-2 -82 -2 -184.5v-208.5v-219.5v-190.5q2 -82 2 -131v-49q0 -131 68.5 -231.5t187.5 -143.5q37 -14 76.5 -21t78.5 -7q76 2 147.5 25.5t123.5 68.5q113 90 148.5 222t41.5 273q2 35 2 70v70l4 655 l23 -8v-142.5t2 -134.5t2 -129v-127v-19v-20q0 -106 -7.5 -215.5t-25.5 -230.5q-31 -125 -128 -231.5t-226 -135.5q-37 -8 -75 -12t-77 -4q-88 0 -174 24.5t-158 73.5q-150 109 -181.5 275t-33.5 346q-4 82 -4 168v174v9v9q2 39 2 78v78v29.5v29.5q0 31 -1 60.5t-3 58.5z M416 1419l223 201l36 -30q36 -31 77 -70q43 -37 78 -69l34 -32l-225 129z" />
<glyph unicode="&#xdc;" horiz-adv-x="1208" d="M53 1415q12 -2 26.5 -4t31.5 -4h14h14q20 0 39 1t31 3q14 0 23 1l8 1q-2 -82 -2 -184.5v-208.5v-219.5v-190.5q2 -82 2 -131v-49q0 -131 68.5 -231.5t187.5 -143.5q37 -14 76.5 -21t78.5 -7q76 2 147.5 25.5t123.5 68.5q113 90 148.5 222t41.5 273q2 35 2 70v70l4 655 l23 -8v-142.5t2 -134.5t2 -129v-127v-19v-20q0 -106 -7.5 -215.5t-25.5 -230.5q-31 -125 -128 -231.5t-226 -135.5q-37 -8 -75 -12t-77 -4q-88 0 -174 24.5t-158 73.5q-150 109 -181.5 275t-33.5 346q-4 82 -4 168v174v9v9q2 39 2 78v78v29.5v29.5q0 31 -1 60.5t-3 58.5z M485 1540q0 18 13.5 32.5t31.5 14.5q20 0 34 -14t14 -33q0 -18 -13.5 -31.5t-34.5 -13.5q-18 0 -31.5 13.5t-13.5 31.5zM678 1540q0 18 13.5 32.5t31.5 14.5q20 0 33.5 -14t13.5 -33q0 -18 -13.5 -31.5t-33.5 -13.5q-18 0 -31.5 13.5t-13.5 31.5z" />
<glyph unicode="&#xdd;" />
<glyph unicode="&#xde;" />
<glyph unicode="&#xdf;" />
<glyph unicode="&#xe0;" horiz-adv-x="620" d="M25 283q0 53 18 101t57 87q41 41 89.5 63.5t99.5 22.5q10 0 21.5 -1t23.5 -3q10 -2 21.5 -6t21.5 -8q4 -2 7 -3t7 -4q10 -4 19.5 -8t19.5 -12q4 -2 8 -6l8 -8q4 4 6.5 9t4.5 11t4 13.5t6 13.5h98v-539h-114l-1 4q-1 4 -1 13q0 4 -1.5 10t-1.5 14v4v4l-10 -7t-24 -15 q-6 -2 -12.5 -5t-12.5 -8l-12 -4t-13 -4q-20 -6 -40.5 -9t-40.5 -3t-41 3t-41 9q-49 12 -90 53t-60 87q-2 2 -3 4t-1 4q-6 20 -11 40.5t-7 41.5q0 10 -1 20t-1 21zM41 276q0 -29 6 -58.5t14 -57.5q25 -63 84.5 -102.5t126.5 -45.5h4.5h4.5h12t12 2q29 2 57.5 12.5t53.5 22.5 q8 4 15 11.5t13 15.5q2 6 4.5 11t2.5 9l2 365q0 2 -1 3t-1 3q-10 23 -22.5 33t-35.5 18q-10 4 -20.5 7l-24.5 7q-18 6 -34.5 9.5t-32.5 3.5q-20 0 -39 -5t-37 -14q-12 -6 -26.5 -14t-28.5 -18q-57 -39 -83 -95.5t-26 -122.5zM254 823l10 64l215 -193z" />
<glyph unicode="&#xe1;" horiz-adv-x="620" d="M25 283q0 53 18 101t57 87q41 41 89.5 63.5t99.5 22.5q10 0 21.5 -1t23.5 -3q10 -2 21.5 -6t21.5 -8q4 -2 7 -3t7 -4q10 -4 19.5 -8t19.5 -12q4 -2 8 -6l8 -8q4 4 6.5 9t4.5 11t4 13.5t6 13.5h98v-539h-114l-1 4q-1 4 -1 13q0 4 -1.5 10t-1.5 14v4v4l-10 -7t-24 -15 q-6 -2 -12.5 -5t-12.5 -8l-12 -4t-13 -4q-20 -6 -40.5 -9t-40.5 -3t-41 3t-41 9q-49 12 -90 53t-60 87q-2 2 -3 4t-1 4q-6 20 -11 40.5t-7 41.5q0 10 -1 20t-1 21zM41 276q0 -29 6 -58.5t14 -57.5q25 -63 84.5 -102.5t126.5 -45.5h4.5h4.5h12t12 2q29 2 57.5 12.5t53.5 22.5 q8 4 15 11.5t13 15.5q2 6 4.5 11t2.5 9l2 365q0 2 -1 3t-1 3q-10 23 -22.5 33t-35.5 18q-10 4 -20.5 7l-24.5 7q-18 6 -34.5 9.5t-32.5 3.5q-20 0 -39 -5t-37 -14q-12 -6 -26.5 -14t-28.5 -18q-57 -39 -83 -95.5t-26 -122.5zM184 799l246 221l12 -74z" />
<glyph unicode="&#xe2;" horiz-adv-x="620" d="M25 283q0 53 18 101t57 87q41 41 89.5 63.5t99.5 22.5q10 0 21.5 -1t23.5 -3q10 -2 21.5 -6t21.5 -8q4 -2 7 -3t7 -4q10 -4 19.5 -8t19.5 -12q4 -2 8 -6l8 -8q4 4 6.5 9t4.5 11t4 13.5t6 13.5h98v-539h-114l-1 4q-1 4 -1 13q0 4 -1.5 10t-1.5 14v4v4l-10 -7t-24 -15 q-6 -2 -12.5 -5t-12.5 -8l-12 -4t-13 -4q-20 -6 -40.5 -9t-40.5 -3t-41 3t-41 9q-49 12 -90 53t-60 87q-2 2 -3 4t-1 4q-6 20 -11 40.5t-7 41.5q0 10 -1 20t-1 21zM41 276q0 -29 6 -58.5t14 -57.5q25 -63 84.5 -102.5t126.5 -45.5h4.5h4.5h12t12 2q29 2 57.5 12.5t53.5 22.5 q8 4 15 11.5t13 15.5q2 6 4.5 11t2.5 9l2 365q0 2 -1 3t-1 3q-10 23 -22.5 33t-35.5 18q-10 4 -20.5 7l-24.5 7q-18 6 -34.5 9.5t-32.5 3.5q-20 0 -39 -5t-37 -14q-12 -6 -26.5 -14t-28.5 -18q-57 -39 -83 -95.5t-26 -122.5zM96 662l223 200l36 -30q36 -31 77 -70 q43 -37 78 -68l35 -32l-226 129z" />
<glyph unicode="&#xe3;" horiz-adv-x="608" d="M25 283q0 53 18 101t57 87q41 41 89.5 63.5t99.5 22.5q10 0 21.5 -1t23.5 -3q10 -2 21.5 -6t21.5 -8q4 -2 7 -3t7 -4q10 -4 19.5 -8t19.5 -12q4 -2 8 -6l8 -8q4 4 6.5 9t4.5 11t4 13.5t6 13.5h98v-539h-114l-1 4q-1 4 -1 13q0 4 -1.5 10t-1.5 14v4v4l-10 -7t-24 -15 q-6 -2 -12.5 -5t-12.5 -8l-12 -4t-13 -4q-20 -6 -40.5 -9t-40.5 -3t-41 3t-41 9q-49 12 -90 53t-60 87q-2 2 -3 4t-1 4q-6 20 -11 40.5t-7 41.5q0 10 -1 20t-1 21zM41 276q0 -29 6 -58.5t14 -57.5q25 -63 84.5 -102.5t126.5 -45.5h4.5h4.5h12t12 2q29 2 57.5 12.5t53.5 22.5 q8 4 15 11.5t13 15.5q2 6 4.5 11t2.5 9l2 365q0 2 -1 3t-1 3q-10 23 -22.5 33t-35.5 18q-10 4 -20.5 7l-24.5 7q-18 6 -34.5 9.5t-32.5 3.5q-20 0 -39 -5t-37 -14q-12 -6 -26.5 -14t-28.5 -18q-57 -39 -83 -95.5t-26 -122.5zM104 758q41 33 73 45t59 12q31 0 54 -14.5 t44 -32.5q6 -4 11 -8t11 -10q14 -10 28.5 -18.5t33.5 -8.5q16 0 33.5 8t37.5 27q-35 -31 -62.5 -43.5t-49.5 -12.5q-29 0 -50.5 14.5t-41.5 33.5l-1 1l-1 1q-18 16 -40 30.5t-48 14.5q-18 0 -40 -9.5t-51 -29.5z" />
<glyph unicode="&#xe4;" horiz-adv-x="620" d="M25 283q0 53 18 101t57 87q41 41 89.5 63.5t99.5 22.5q10 0 21.5 -1t23.5 -3q10 -2 21.5 -6t21.5 -8q4 -2 7 -3t7 -4q10 -4 19.5 -8t19.5 -12q4 -2 8 -6l8 -8q4 4 6.5 9t4.5 11t4 13.5t6 13.5h98v-539h-114l-1 4q-1 4 -1 13q0 4 -1.5 10t-1.5 14v4v4l-10 -7t-24 -15 q-6 -2 -12.5 -5t-12.5 -8l-12 -4t-13 -4q-20 -6 -40.5 -9t-40.5 -3t-41 3t-41 9q-49 12 -90 53t-60 87q-2 2 -3 4t-1 4q-6 20 -11 40.5t-7 41.5q0 10 -1 20t-1 21zM41 276q0 -29 6 -58.5t14 -57.5q25 -63 84.5 -102.5t126.5 -45.5h4.5h4.5h12t12 2q29 2 57.5 12.5t53.5 22.5 q8 4 15 11.5t13 15.5q2 6 4.5 11t2.5 9l2 365q0 2 -1 3t-1 3q-10 23 -22.5 33t-35.5 18q-10 4 -20.5 7l-24.5 7q-18 6 -34.5 9.5t-32.5 3.5q-20 0 -39 -5t-37 -14q-12 -6 -26.5 -14t-28.5 -18q-57 -39 -83 -95.5t-26 -122.5zM229 707q0 18 13.5 32.5t31.5 14.5 q20 0 34 -14.5t14 -32.5t-13.5 -31.5t-34.5 -13.5q-18 0 -31.5 13t-13.5 32zM422 707q0 18 13.5 32.5t31.5 14.5q20 0 33.5 -14.5t13.5 -32.5t-13.5 -31.5t-33.5 -13.5q-18 0 -31.5 13t-13.5 32z" />
<glyph unicode="&#xe5;" horiz-adv-x="608" d="M25 283q0 53 18 101t57 87q41 41 89.5 63.5t99.5 22.5q10 0 21.5 -1t23.5 -3q10 -2 21.5 -6t21.5 -8q4 -2 7 -3t7 -4q10 -4 19.5 -8t19.5 -12q4 -2 8 -6l8 -8q4 4 6.5 9t4.5 11t4 13.5t6 13.5h98v-539h-114l-1 4q-1 4 -1 13q0 4 -1.5 10t-1.5 14v4v4l-10 -7t-24 -15 q-6 -2 -12.5 -5t-12.5 -8l-12 -4t-13 -4q-20 -6 -40.5 -9t-40.5 -3t-41 3t-41 9q-49 12 -90 53t-60 87q-2 2 -3 4t-1 4q-6 20 -11 40.5t-7 41.5q0 10 -1 20t-1 21zM41 276q0 -29 6 -58.5t14 -57.5q25 -63 84.5 -102.5t126.5 -45.5h4.5h4.5h12t12 2q29 2 57.5 12.5t53.5 22.5 q8 4 15 11.5t13 15.5q2 6 4.5 11t2.5 9l2 365q0 2 -1 3t-1 3q-10 23 -22.5 33t-35.5 18q-10 4 -20.5 7l-24.5 7q-18 6 -34.5 9.5t-32.5 3.5q-20 0 -39 -5t-37 -14q-12 -6 -26.5 -14t-28.5 -18q-57 -39 -83 -95.5t-26 -122.5zM223 696q0 37 28 64.5t64 27.5q39 0 66 -27.5 t27 -64.5q0 -39 -27 -64.5t-66 -25.5q-37 0 -64.5 25.5t-27.5 64.5zM242 696q0 -31 22.5 -52t50.5 -21q31 0 52.5 21.5t21.5 51.5q0 29 -21.5 52.5t-52.5 23.5q-29 0 -51 -23.5t-22 -52.5z" />
<glyph unicode="&#xe6;" horiz-adv-x="876" d="M16 283q2 53 19.5 101t56.5 87q41 41 89 63.5t100 22.5q12 0 23 -1t22 -3q10 -2 21 -6t24 -8q4 -2 8 -3t8 -4q10 -4 19.5 -8t17.5 -10l8 -8l8 -8q0 -2 1 -3l1 -1q6 -8 10 -16l5 -7q35 41 85 62.5t103 25.5h8h9q6 0 13 -1t13 -1q29 -4 55.5 -12t49.5 -23q29 -25 43 -57.5 t14 -67.5v-11t-2 -9q0 -4 -1 -9.5t-3 -11.5q-29 -59 -88.5 -96t-126.5 -37q-14 -2 -28.5 -4t-31.5 -2h-16t-16 2h-13.5h-13.5v-18.5v-20.5q-2 -8 -2 -18v-21q0 -33 9 -62.5t38 -45.5q23 -8 45.5 -12.5t44.5 -4.5q47 0 93 16.5t81 43.5l6 -13q-33 -29 -82 -45t-102 -16 q-18 0 -35.5 2t-34.5 6q-2 0 -5 1t-5 3q-33 8 -58.5 21.5t-47.5 38.5q-8 -8 -11 -14l-4 -5l-10 -7t-27 -15q-4 -2 -9 -5t-9 -5q-8 -2 -15.5 -5.5t-13.5 -5.5q-20 -6 -41.5 -9t-40.5 -3q-23 0 -43 3t-41 9q-49 12 -90 53t-59 87q-2 2 -3 4t-1 4q-6 20 -11.5 40.5t-7.5 41.5 q0 10 -1 20t-1 21zM33 274q2 -29 7 -57.5t13 -56.5q25 -63 85.5 -104.5t125.5 -43.5h6h4h12.5t12.5 2q29 2 57.5 12.5t53.5 22.5q2 2 4 3t4 1q8 8 16 16.5t8 16.5q-4 4 -8 9t-8 9q-6 8 -13 18.5t-10 22.5q-4 14 -7 29.5t-5 30.5q-2 14 -3 29.5t-1 29.5q0 61 16.5 113.5 t42.5 85.5q-2 4 -5 9t-5 9q-10 14 -21.5 21.5t-27.5 15.5q-10 2 -20.5 6t-24.5 8q-18 6 -34.5 9.5t-33.5 3.5q-20 0 -38.5 -5t-36.5 -14q-12 -6 -26.5 -14t-29.5 -18q-57 -39 -83.5 -96.5t-26.5 -123.5zM506 315q0 -20 1 -39.5t3 -35.5q12 -2 25.5 -2h27.5q16 0 33.5 1 t34.5 3q55 8 104 31.5t76 70.5q4 12 7 27.5t3 29.5q0 25 -7 48.5t-21 42.5q-27 20 -55.5 34.5t-63.5 14.5h-4h-6q-2 -2 -4.5 -2h-6.5q-6 -2 -14 -3t-14 -4q-37 -8 -68 -23t-41 -44q-4 -25 -6 -53.5t-4 -57.5v-19v-20z" />
<glyph unicode="&#xe7;" horiz-adv-x="479" d="M23 276q0 23 3 44.5t9 44.5q20 78 80.5 133t148.5 57q33 0 58.5 -5t48.5 -15q18 -8 35.5 -21.5t37.5 -30.5h-2t-3 -1t-1 -3v-1v-1v-2v-2q2 -2 2 -4t-4 2t-12 11t-18 16q-2 2 -4.5 3t-4.5 3q-10 8 -20 15t-17 9q-18 8 -37.5 12.5t-41.5 4.5q-25 0 -47.5 -6.5t-43.5 -22.5 q-8 -6 -14 -17.5t-6 -27.5v-65.5v-71.5q0 -100 2 -186.5t4 -100.5q4 -16 40 -25.5t79 -9.5h20.5t18.5 2q33 4 57.5 19.5t46.5 34.5q2 0 2 1t2 1q4 4 7.5 7t7.5 5v-1v-1v-1v-1q0 -2 1 -3l3 -3h3h1l-13 -10q-12 -11 -30 -21q-4 -4 -8 -7t-8 -5q-10 -6 -20.5 -11.5t-18.5 -7.5 q-10 -2 -21.5 -4t-21.5 -4v-2q0 -8 -1 -18.5t-6 -20.5q-8 -33 -33.5 -61.5t-68.5 -26.5h-3h-1h-3h-3q35 14 45 33.5t10 40.5q0 8 -1 17t-3 18q0 6 -1 10t-1 8q-33 4 -64.5 15.5t-60.5 31.5q-51 47 -80 105.5t-26 123.5z" />
<glyph unicode="&#xe8;" horiz-adv-x="544" d="M16 268q0 55 21.5 106.5t56.5 90.5q39 41 91.5 63.5t109.5 26.5h8h8h13.5t13.5 -2q25 -2 50.5 -9t47.5 -22q29 -25 43.5 -56.5t14.5 -66.5q0 -10 -1 -21t-6 -22q-29 -59 -88 -96t-127 -37q-6 -2 -11 -3t-9 -1h-9h-12h-9h-9h-5t-5 2h-13.5h-13.5h-12t-10 -2v-9v-11v-13.5 v-15.5q-2 -8 -2 -15.5v-15.5q2 -33 10 -61.5t37 -44.5q23 -8 45 -12.5t45 -4.5q47 0 93 16.5t81 43.5l8 -13q-35 -29 -84 -45t-102 -16q-18 0 -36 2t-34 6q-53 16 -96 49t-72 86q-14 31 -22.5 62t-8.5 61zM150 315q0 -20 1 -39.5t3 -35.5q12 -2 25.5 -2h27.5q16 0 33.5 1 t33.5 3q55 8 104.5 31.5t76.5 70.5q4 12 7 27.5t3 29.5q0 25 -7 48.5t-22 42.5q-27 20 -55.5 34.5t-63.5 14.5h-4h-6q-2 -2 -4 -2h-6q-6 -2 -14.5 -3t-14.5 -4q-37 -8 -67.5 -23t-40.5 -44q-4 -25 -6 -53.5t-4 -57.5v-19v-20zM201 823l10 64l215 -193z" />
<glyph unicode="&#xe9;" horiz-adv-x="534" d="M16 268q0 55 21.5 106.5t56.5 90.5q39 41 91.5 63.5t109.5 26.5h8h8h13.5t13.5 -2q25 -2 50.5 -9t47.5 -22q29 -25 43.5 -56.5t14.5 -66.5q0 -10 -1 -21t-6 -22q-29 -59 -88 -96t-127 -37q-6 -2 -11 -3t-9 -1h-9h-12h-9h-9h-5t-5 2h-13.5h-13.5h-12t-10 -2v-9v-11v-13.5 v-15.5q-2 -8 -2 -15.5v-15.5q2 -33 10 -61.5t37 -44.5q23 -8 45 -12.5t45 -4.5q47 0 93 16.5t81 43.5l8 -13q-35 -29 -84 -45t-102 -16q-18 0 -36 2t-34 6q-53 16 -96 49t-72 86q-14 31 -22.5 62t-8.5 61zM150 315q0 -20 1 -39.5t3 -35.5q12 -2 25.5 -2h27.5q16 0 33.5 1 t33.5 3q55 8 104.5 31.5t76.5 70.5q4 12 7 27.5t3 29.5q0 25 -7 48.5t-22 42.5q-27 20 -55.5 34.5t-63.5 14.5h-4h-6q-2 -2 -4 -2h-6q-6 -2 -14.5 -3t-14.5 -4q-37 -8 -67.5 -23t-40.5 -44q-4 -25 -6 -53.5t-4 -57.5v-19v-20zM184 799l246 221l12 -74z" />
<glyph unicode="&#xea;" horiz-adv-x="544" d="M16 268q0 55 21.5 106.5t56.5 90.5q39 41 91.5 63.5t109.5 26.5h8h8h13.5t13.5 -2q25 -2 50.5 -9t47.5 -22q29 -25 43.5 -56.5t14.5 -66.5q0 -10 -1 -21t-6 -22q-29 -59 -88 -96t-127 -37q-6 -2 -11 -3t-9 -1h-9h-12h-9h-9h-5t-5 2h-13.5h-13.5h-12t-10 -2v-9v-11v-13.5 v-15.5q-2 -8 -2 -15.5v-15.5q2 -33 10 -61.5t37 -44.5q23 -8 45 -12.5t45 -4.5q47 0 93 16.5t81 43.5l8 -13q-35 -29 -84 -45t-102 -16q-18 0 -36 2t-34 6q-53 16 -96 49t-72 86q-14 31 -22.5 62t-8.5 61zM53 662l223 200l36 -30q36 -31 77 -70q43 -37 78 -68l35 -32 l-226 129zM150 315q0 -20 1 -39.5t3 -35.5q12 -2 25.5 -2h27.5q16 0 33.5 1t33.5 3q55 8 104.5 31.5t76.5 70.5q4 12 7 27.5t3 29.5q0 25 -7 48.5t-22 42.5q-27 20 -55.5 34.5t-63.5 14.5h-4h-6q-2 -2 -4 -2h-6q-6 -2 -14.5 -3t-14.5 -4q-37 -8 -67.5 -23t-40.5 -44 q-4 -25 -6 -53.5t-4 -57.5v-19v-20z" />
<glyph unicode="&#xeb;" horiz-adv-x="534" d="M16 268q0 55 21.5 106.5t56.5 90.5q39 41 91.5 63.5t109.5 26.5h8h8h13.5t13.5 -2q25 -2 50.5 -9t47.5 -22q29 -25 43.5 -56.5t14.5 -66.5q0 -10 -1 -21t-6 -22q-29 -59 -88 -96t-127 -37q-6 -2 -11 -3t-9 -1h-9h-12h-9h-9h-5t-5 2h-13.5h-13.5h-12t-10 -2v-9v-11v-13.5 v-15.5q-2 -8 -2 -15.5v-15.5q2 -33 10 -61.5t37 -44.5q23 -8 45 -12.5t45 -4.5q47 0 93 16.5t81 43.5l8 -13q-35 -29 -84 -45t-102 -16q-18 0 -36 2t-34 6q-53 16 -96 49t-72 86q-14 31 -22.5 62t-8.5 61zM143 707q0 18 13.5 32.5t31.5 14.5q20 0 34 -14.5t14 -32.5 t-13.5 -31.5t-34.5 -13.5q-18 0 -31.5 13t-13.5 32zM150 315q0 -20 1 -39.5t3 -35.5q12 -2 25.5 -2h27.5q16 0 33.5 1t33.5 3q55 8 104.5 31.5t76.5 70.5q4 12 7 27.5t3 29.5q0 25 -7 48.5t-22 42.5q-27 20 -55.5 34.5t-63.5 14.5h-4h-6q-2 -2 -4 -2h-6q-6 -2 -14.5 -3 t-14.5 -4q-37 -8 -67.5 -23t-40.5 -44q-4 -25 -6 -53.5t-4 -57.5v-19v-20zM336 707q0 18 13 32.5t32 14.5q20 0 33.5 -14.5t13.5 -32.5t-13.5 -31.5t-33.5 -13.5q-18 0 -31.5 13t-13.5 32z" />
<glyph unicode="&#xec;" horiz-adv-x="192" d="M-6 823l10 64l213 -193zM35 0v555h106v-555h-106z" />
<glyph unicode="&#xed;" horiz-adv-x="192" d="M-20 799l245 221l13 -74zM35 0v555h106v-555h-106z" />
<glyph unicode="&#xee;" horiz-adv-x="212" d="M-39 651l143 211l23 -32q23 -33 51 -72q27 -41 50 -74l22 -33l-146 135zM47 0v555h105v-555h-105z" />
<glyph unicode="&#xef;" horiz-adv-x="256" d="M-35 707q2 18 15.5 32.5t29.5 14.5q18 0 32.5 -14.5t14.5 -32.5t-14 -31.5t-33 -13.5q-16 0 -29.5 13t-13.5 32h-2zM57 0v555h105v-555h-105zM158 707q0 18 13 32.5t32 14.5q18 0 32.5 -14.5t14.5 -32.5t-14.5 -31.5t-32.5 -13.5t-31.5 13t-13.5 32z" />
<glyph unicode="&#xf0;" />
<glyph unicode="&#xf1;" horiz-adv-x="598" d="M29 758q41 33 72.5 45t58.5 12q31 0 54.5 -14.5t43.5 -32.5q6 -4 11 -8t12 -10q14 -10 28.5 -18.5t32.5 -8.5q16 0 33.5 8t38.5 27q-35 -31 -62.5 -43.5t-50.5 -12.5q-29 0 -50.5 14.5t-41.5 33.5l-1 1l-1 1q-18 16 -40 30.5t-48 14.5q-18 0 -40 -9.5t-50 -29.5zM94 0 v543h111v-82q2 2 3 4t3 4q18 27 59 51.5t103 32.5q10 2 21.5 2h21.5h11h9q72 -6 130.5 -34.5t58.5 -63.5v-457h-115v457q0 39 -32 59.5t-70 24.5q-6 2 -11.5 2h-11.5h-5h-7q-6 0 -12.5 -1t-12.5 -1q-43 -10 -81 -34t-52 -52q-4 -6 -6 -13.5t-2 -13.5v-428h-113z" />
<glyph unicode="&#xf2;" horiz-adv-x="641" d="M29 281v12t2 12q0 4 1 10.5t1 12.5q16 82 79.5 145.5t145.5 79.5q14 2 26.5 3t24.5 1q59 0 111.5 -18.5t95.5 -57.5q41 -49 61.5 -103t22.5 -118q0 -88 -48 -150.5t-126 -91.5q-25 -8 -49.5 -13t-50.5 -5q-45 0 -88 12.5t-80 32.5q-63 37 -96 99.5t-33 136.5zM160 313 q0 -59 6 -117.5t14 -113.5q12 -29 41 -42t62 -15q8 -2 15 -2h15h3h3q72 0 131.5 36.5t94.5 96.5q10 29 16 59.5t6 63.5v9v9q-4 45 -19.5 87t-45.5 75q-29 41 -74 59.5t-92 18.5h-11.5h-9.5q-37 -4 -71.5 -17.5t-63.5 -38.5q-10 -41 -15 -83t-5 -85zM254 823l10 64l215 -193z " />
<glyph unicode="&#xf3;" horiz-adv-x="641" d="M29 281v12t2 12q0 4 1 10.5t1 12.5q16 82 79.5 145.5t145.5 79.5q14 2 26.5 3t24.5 1q59 0 111.5 -18.5t95.5 -57.5q41 -49 61.5 -103t22.5 -118q0 -88 -48 -150.5t-126 -91.5q-25 -8 -49.5 -13t-50.5 -5q-45 0 -88 12.5t-80 32.5q-63 37 -96 99.5t-33 136.5zM160 313 q0 -59 6 -117.5t14 -113.5q12 -29 41 -42t62 -15q8 -2 15 -2h15h3h3q72 0 131.5 36.5t94.5 96.5q10 29 16 59.5t6 63.5v9v9q-4 45 -19.5 87t-45.5 75q-29 41 -74 59.5t-92 18.5h-11.5h-9.5q-37 -4 -71.5 -17.5t-63.5 -38.5q-10 -41 -15 -83t-5 -85zM270 799l246 221l12 -74z " />
<glyph unicode="&#xf4;" horiz-adv-x="630" d="M29 281v12t2 12q0 4 1 10.5t1 12.5q16 82 79.5 145.5t145.5 79.5q14 2 26.5 3t24.5 1q59 0 111.5 -18.5t95.5 -57.5q41 -49 61.5 -103t22.5 -118q0 -88 -48 -150.5t-126 -91.5q-25 -8 -49.5 -13t-50.5 -5q-45 0 -88 12.5t-80 32.5q-63 37 -96 99.5t-33 136.5zM96 662 l223 200l36 -30q36 -31 77 -70q43 -37 78 -68l35 -32l-226 129zM160 313q0 -59 6 -117.5t14 -113.5q12 -29 41 -42t62 -15q8 -2 15 -2h15h3h3q72 0 131.5 36.5t94.5 96.5q10 29 16 59.5t6 63.5v9v9q-4 45 -19.5 87t-45.5 75q-29 41 -74 59.5t-92 18.5h-11.5h-9.5 q-37 -4 -71.5 -17.5t-63.5 -38.5q-10 -41 -15 -83t-5 -85z" />
<glyph unicode="&#xf5;" horiz-adv-x="630" d="M29 281v12t2 12q0 4 1 10.5t1 12.5q16 82 79.5 145.5t145.5 79.5q14 2 26.5 3t24.5 1q59 0 111.5 -18.5t95.5 -57.5q41 -49 61.5 -103t22.5 -118q0 -88 -48 -150.5t-126 -91.5q-25 -8 -49.5 -13t-50.5 -5q-45 0 -88 12.5t-80 32.5q-63 37 -96 99.5t-33 136.5zM104 758 q41 33 73 45t59 12q31 0 54 -14.5t44 -32.5q6 -4 11 -8t11 -10q14 -10 28.5 -18.5t33.5 -8.5q16 0 33.5 8t37.5 27q-35 -31 -62.5 -43.5t-49.5 -12.5q-29 0 -50.5 14.5t-41.5 33.5l-1 1l-1 1q-18 16 -40 30.5t-48 14.5q-18 0 -40 -9.5t-51 -29.5zM160 313q0 -59 6 -117.5 t14 -113.5q12 -29 41 -42t62 -15q8 -2 15 -2h15h3h3q72 0 131.5 36.5t94.5 96.5q10 29 16 59.5t6 63.5v9v9q-4 45 -19.5 87t-45.5 75q-29 41 -74 59.5t-92 18.5h-11.5h-9.5q-37 -4 -71.5 -17.5t-63.5 -38.5q-10 -41 -15 -83t-5 -85z" />
<glyph unicode="&#xf6;" horiz-adv-x="641" d="M29 281v12t2 12q0 4 1 10.5t1 12.5q16 82 79.5 145.5t145.5 79.5q14 2 26.5 3t24.5 1q59 0 111.5 -18.5t95.5 -57.5q41 -49 61.5 -103t22.5 -118q0 -88 -48 -150.5t-126 -91.5q-25 -8 -49.5 -13t-50.5 -5q-45 0 -88 12.5t-80 32.5q-63 37 -96 99.5t-33 136.5zM160 313 q0 -59 6 -117.5t14 -113.5q12 -29 41 -42t62 -15q8 -2 15 -2h15h3h3q72 0 131.5 36.5t94.5 96.5q10 29 16 59.5t6 63.5v9v9q-4 45 -19.5 87t-45.5 75q-29 41 -74 59.5t-92 18.5h-11.5h-9.5q-37 -4 -71.5 -17.5t-63.5 -38.5q-10 -41 -15 -83t-5 -85zM207 707q0 18 13 32.5 t32 14.5q20 0 33.5 -14.5t13.5 -32.5t-13.5 -31.5t-33.5 -13.5q-18 0 -31.5 13t-13.5 32zM399 707q0 18 13.5 32.5t31.5 14.5q20 0 34 -14.5t14 -32.5t-13.5 -31.5t-34.5 -13.5q-18 0 -31.5 13t-13.5 32z" />
<glyph unicode="&#xf7;" />
<glyph unicode="&#xf8;" horiz-adv-x="641" d="M29 281v12t2 12q0 4 1 10.5t1 12.5q16 82 79.5 145.5t145.5 79.5q14 2 26.5 3t24.5 1q59 0 111.5 -18.5t95.5 -57.5q41 -49 61.5 -103t22.5 -118q0 -88 -48 -150.5t-126 -91.5q-25 -8 -49.5 -13t-50.5 -5q-45 0 -88 12.5t-80 32.5q-63 37 -96 99.5t-33 136.5zM102 -135 l428 969h72l-430 -969h-70zM160 313q0 -59 6 -117.5t14 -113.5q12 -29 41 -42t62 -15q8 -2 15 -2h15h3h3q72 0 131.5 36.5t94.5 96.5q10 29 16 59.5t6 63.5v9v9q-4 45 -19.5 87t-45.5 75q-29 41 -74 59.5t-92 18.5h-11.5h-9.5q-37 -4 -71.5 -17.5t-63.5 -38.5 q-10 -41 -15 -83t-5 -85z" />
<glyph unicode="&#xf9;" horiz-adv-x="608" d="M35 96v459h121v-459q0 -47 20.5 -66.5t120.5 -19.5q12 0 24.5 1t24.5 5q41 10 76 36t35 69v434h102v-553h-8h-8h-16.5h-16.5h-38h-15v74q-4 -6 -10.5 -14.5t-16.5 -14.5q-20 -16 -52 -29.5t-79 -15.5h-10h-15q-6 -2 -14 -2h-18q-16 0 -34 1t-34 3q-53 4 -96 24.5 t-43 67.5zM233 823l11 64l215 -193z" />
<glyph unicode="&#xfa;" horiz-adv-x="630" d="M35 96v459h121v-459q0 -47 20.5 -66.5t120.5 -19.5q12 0 24.5 1t24.5 5q41 10 76 36t35 69v434h102v-553h-8h-8h-16.5h-16.5h-38h-15v74q-4 -6 -10.5 -14.5t-16.5 -14.5q-20 -16 -52 -29.5t-79 -15.5h-10h-15q-6 -2 -14 -2h-18q-16 0 -34 1t-34 3q-53 4 -96 24.5 t-43 67.5zM270 799l246 221l12 -74z" />
<glyph unicode="&#xfb;" horiz-adv-x="608" d="M35 96v459h121v-459q0 -47 20.5 -66.5t120.5 -19.5q12 0 24.5 1t24.5 5q41 10 76 36t35 69v434h102v-553h-8h-8h-16.5h-16.5h-38h-15v74q-4 -6 -10.5 -14.5t-16.5 -14.5q-20 -16 -52 -29.5t-79 -15.5h-10h-15q-6 -2 -14 -2h-18q-16 0 -34 1t-34 3q-53 4 -96 24.5 t-43 67.5zM86 662l223 200l36 -30q36 -31 77 -70q43 -37 78 -68l35 -32l-226 129z" />
<glyph unicode="&#xfc;" horiz-adv-x="598" d="M35 96v459h121v-459q0 -47 20.5 -66.5t120.5 -19.5q12 0 24.5 1t24.5 5q41 10 76 36t35 69v434h102v-553h-8h-8h-16.5h-16.5h-38h-15v74q-4 -6 -10.5 -14.5t-16.5 -14.5q-20 -16 -52 -29.5t-79 -15.5h-10h-15q-6 -2 -14 -2h-18q-16 0 -34 1t-34 3q-53 4 -96 24.5 t-43 67.5zM186 707q0 18 13.5 32.5t31.5 14.5q20 0 34 -14.5t14 -32.5t-13.5 -31.5t-34.5 -13.5q-18 0 -31.5 13t-13.5 32zM379 707q0 18 13.5 32.5t31.5 14.5q20 0 33.5 -14.5t13.5 -32.5t-13.5 -31.5t-33.5 -13.5q-18 0 -31.5 13t-13.5 32z" />
<glyph unicode="&#xfd;" />
<glyph unicode="&#xfe;" />
<glyph unicode="&#xff;" horiz-adv-x="608" d="M49 104v447h123v-97v-214v-88v-80q0 -20 17.5 -32.5t35.5 -16.5q4 -2 7.5 -3.5t7.5 -1.5q6 -2 12 -2h12q12 0 24.5 2t24.5 7q35 12 67 33.5t50 43.5l3 3t1 4l-2 444q10 0 21.5 -1t23.5 -3h10.5h12.5h22t19 2h11h5l2 -477q0 -55 -4 -99.5t-12 -87.5q-2 -20 -7.5 -40.5 t-11.5 -43.5q-33 -61 -87 -97t-120 -42q8 6 16.5 9t14.5 5q6 4 13.5 7.5t13.5 11.5q41 37 52 98.5t11 128.5v18.5v18.5v10v9q-2 14 -2 27v26v24.5t2 24.5q-25 -33 -82 -57.5t-120 -24.5h-6.5h-4.5q-29 0 -57.5 5t-52.5 20q-12 6 -23.5 17t-21.5 21q-8 12 -14.5 23.5 t-6.5 17.5zM186 707q0 18 13.5 32.5t31.5 14.5q20 0 34 -14.5t14 -32.5t-13.5 -31.5t-34.5 -13.5q-18 0 -31.5 13t-13.5 32zM379 707q0 18 13.5 32.5t31.5 14.5q20 0 33.5 -14.5t13.5 -32.5t-13.5 -31.5t-33.5 -13.5q-18 0 -31.5 13t-13.5 32z" />
<glyph unicode="&#x152;" horiz-adv-x="1462" d="M68 680v25.5t2 27.5q8 137 60 268.5t165 229.5q104 98 240.5 146t285.5 48h33.5t34.5 -2l747 2v-26h-101h-222h-132.5h-111.5v-428h651l-2 -29h-649v-909h590v-35l-768 2v10q-33 -6 -64.5 -8t-66.5 -2q-39 0 -81 4t-83 12q-188 41 -334.5 183.5t-183.5 335.5 q-4 35 -7 71.5t-3 73.5zM264 723q4 -100 22.5 -196.5t45.5 -180.5q2 -8 5 -17.5t7 -17.5q41 -100 131 -184t201 -96q29 -4 56.5 -7.5t53.5 -0.5q27 0 52.5 2t52.5 6l-2 1366q-27 4 -52.5 6t-50.5 2q-94 0 -180 -31t-157 -96q-100 -98 -142.5 -236.5t-42.5 -285.5v-16.5 v-16.5z" />
<glyph unicode="&#x153;" />
<glyph unicode="&#x178;" horiz-adv-x="1271" d="M59 1407h197l483 -940l459 936h31l-469 -983l-2 -408h-174v336zM592 1477q0 18 13 32.5t32 14.5q20 0 33.5 -14.5t13.5 -32.5t-13.5 -31.5t-33.5 -13.5q-18 0 -31.5 13t-13.5 32zM784 1477q0 18 13.5 32.5t31.5 14.5q20 0 34 -14.5t14 -32.5t-13.5 -31.5t-34.5 -13.5 q-18 0 -31.5 13t-13.5 32z" />
<glyph unicode="&#x2c6;" />
<glyph unicode="&#x2dc;" />
<glyph unicode="&#x2000;" horiz-adv-x="900" />
<glyph unicode="&#x2001;" horiz-adv-x="1800" />
<glyph unicode="&#x2002;" horiz-adv-x="900" />
<glyph unicode="&#x2003;" horiz-adv-x="1800" />
<glyph unicode="&#x2004;" horiz-adv-x="600" />
<glyph unicode="&#x2005;" horiz-adv-x="450" />
<glyph unicode="&#x2006;" horiz-adv-x="300" />
<glyph unicode="&#x2007;" horiz-adv-x="300" />
<glyph unicode="&#x2008;" horiz-adv-x="225" />
<glyph unicode="&#x2009;" horiz-adv-x="360" />
<glyph unicode="&#x200a;" horiz-adv-x="100" />
<glyph unicode="&#x2010;" horiz-adv-x="540" d="M37 385v119h467v-119h-467z" />
<glyph unicode="&#x2011;" horiz-adv-x="540" d="M37 385v119h467v-119h-467z" />
<glyph unicode="&#x2012;" horiz-adv-x="540" d="M37 385v119h467v-119h-467z" />
<glyph unicode="&#x2013;" horiz-adv-x="561" d="M33 334v104h493v-104h-493z" />
<glyph unicode="&#x2014;" horiz-adv-x="659" d="M33 334v104h592v-104h-592z" />
<glyph unicode="&#x2018;" horiz-adv-x="212" d="M31 1207v12q0 43 18.5 83.5t52.5 69.5h15v-3v-5q0 -8 -4 -15.5t-11 -15.5q-2 -4 -5 -7l-7 -7q-8 -12 -16 -24.5t-8 -28.5v-1v-3v-4v-1q8 -2 16 -3t16 -1q25 -4 46.5 -10t33.5 -35q2 -4 2 -9v-11v-7t-2 -7q-2 -16 -13 -32t-28 -22q-2 0 -5 -1t-5 -1h-6h-6 q-27 0 -51.5 14.5t-28.5 45.5q0 6 -1 11t-1 9q-2 4 -2 9z" />
<glyph unicode="&#x2019;" horiz-adv-x="212" d="M33 1303.5v9.5q0 23 12 43t31 28q2 0 5 1t5 1h5h5q29 0 53.5 -15t30.5 -44q2 -8 3 -18.5t1 -20.5q-2 -43 -19.5 -84t-51.5 -74h-15v2v1v1v1v3v1q0 8 3 14t8 14q4 4 8 9.5t8 9.5q8 12 16.5 25.5t8.5 27.5v1v3q-2 2 -2 3l-1 1q-8 2 -15 3t-15 1l-1 1l-1 1q-25 2 -46.5 8.5 t-33.5 32.5q-2 4 -2 9.5z" />
<glyph unicode="&#x201a;" horiz-adv-x="237" d="M33 56v10q0 23 12 43t31 28q4 0 6 1t6 1h5h5q29 0 52.5 -14t29.5 -45q2 -8 3 -18.5t1 -20.5q-2 -41 -19.5 -82t-51.5 -74l-15 -2v3v3v3.5v3.5q0 8 4 16t9 14q4 4 7 8.5t7 8.5q8 12 16.5 24.5t8.5 26.5v1v3l-2 2h-1q-8 2 -15 3t-15 1l-1 1l-1 1q-25 2 -46.5 8t-33.5 33 q-2 4 -2 9z" />
<glyph unicode="&#x201c;" horiz-adv-x="442" d="M31 1207v12q0 43 18.5 83.5t52.5 69.5h15v-3v-5q0 -8 -4 -15.5t-11 -15.5q-2 -4 -5 -7l-7 -7q-8 -12 -16 -24.5t-8 -28.5v-1v-3v-4v-1q8 -2 16 -3t16 -1q25 -4 46.5 -10t33.5 -35q2 -4 2 -9v-11v-7t-2 -7q-2 -16 -13 -32t-28 -22q-2 0 -5 -1t-5 -1h-6h-6 q-27 0 -51.5 14.5t-28.5 45.5q0 6 -1 11t-1 9q-2 4 -2 9zM236 1214v8.5t2 8.5q4 39 21 77t48 64h15v-1q0 -1 2 -3v-3v-1q0 -8 -4.5 -16.5t-10.5 -14.5q-2 -4 -5 -7t-5 -7q-10 -12 -18.5 -25.5t-8.5 -27.5v-4v-5q8 -2 15.5 -3t15.5 -1h1q1 0 1 -2q25 -2 46.5 -9t33.5 -34 q2 -4 2 -9v-9v-4v-4q-2 -18 -14.5 -37t-28.5 -25q-2 0 -5 -1t-5 -1h-6h-6q-27 0 -51.5 14.5t-30.5 45.5q-2 10 -3 19t-1 17z" />
<glyph unicode="&#x201d;" horiz-adv-x="442" d="M33 1303.5v9.5q0 23 12 43t31 28q2 0 5 1t5 1h5h5q29 0 53.5 -15t30.5 -44q2 -8 3 -18.5t1 -20.5q-2 -43 -19.5 -84t-51.5 -74h-15v2v1v1v1v3v1q0 8 3 14t8 14q4 4 8 9.5t8 9.5q8 12 16.5 25.5t8.5 27.5v1v3q-2 2 -2 3l-1 1q-8 2 -15 3t-15 1l-1 1l-1 1q-25 2 -46.5 8.5 t-33.5 32.5q-2 4 -2 9.5zM240 1303.5v9.5q0 23 12 43t31 28q2 0 5 1t5 1h5h5q29 0 53.5 -15t30.5 -44q2 -8 3 -17.5t1 -19.5v-9t-2 -9q-4 -39 -21.5 -76t-48.5 -66h-14v2v3q-2 2 -2 3v1q0 8 4 14t8 14q4 4 7.5 8.5t5.5 8.5q10 12 18 25.5t8 29.5v1v3v3v1q-8 2 -15 3t-15 1 l-1 1l-1 1q-25 2 -46.5 8.5t-33.5 32.5q-2 4 -2 9.5z" />
<glyph unicode="&#x201e;" horiz-adv-x="423" d="M33 70.5v9.5v4v4q2 18 14 36.5t29 25.5q4 0 6 1t6 1h5h5q29 0 52.5 -14.5t29.5 -45.5q2 -8 3 -18.5t1 -20.5q-2 -43 -19.5 -83t-51.5 -70l-15 -2v3v1v1v1v3v1q0 8 4 16t9 15q4 4 7 8t7 8q8 12 16.5 24.5t8.5 24.5v1v3q-2 2 -2 3l-1 1q-8 2 -15 3t-15 1h-1q-1 0 -1 2 q-25 2 -46.5 9.5t-33.5 33.5q-2 4 -2 9.5zM240 70.5v9.5v4v4q2 18 14 36.5t29 25.5q4 0 6 1t6 1h5h5q29 0 52.5 -14.5t29.5 -45.5q2 -8 3 -17t1 -20v-8t-2 -8q-4 -39 -21.5 -76t-48.5 -63l-14 -2v3v3q-2 2 -2 3v1q0 8 4 16t10 15q2 4 5.5 7t5.5 7q10 12 18 25.5t8 25.5v5v3 q-8 2 -15 3t-15 1h-1q-1 0 -1 2q-25 2 -46.5 9.5t-33.5 33.5q-2 4 -2 9.5z" />
<glyph unicode="&#x2022;" horiz-adv-x="309" d="M63 444q0 37 28 65t67 28t65.5 -28t26.5 -65q0 -39 -26.5 -65.5t-65.5 -26.5t-67 27t-28 65z" />
<glyph unicode="&#x2026;" />
<glyph unicode="&#x202f;" horiz-adv-x="360" />
<glyph unicode="&#x2039;" />
<glyph unicode="&#x203a;" />
<glyph unicode="&#x205f;" horiz-adv-x="450" />
<glyph unicode="&#x2122;" horiz-adv-x="1058" d="M70 1563v14h372v-14h-147v-555h-76v555h-149zM461 1010v559l260 -467l41 74q41 75 92 165q47 86 88 157t43 69v-555h-15h-32q-6 0 -14.5 -1t-14.5 -1v399l-39 -73q-39 -72 -86 -158q-23 -45 -45 -87t-41 -75h-10q-16 33 -38.5 72.5t-45.5 82.5q-2 4 -5 8.5t-5 8.5 q-45 80 -84 146l-39 65v-389h-10z" />
<glyph unicode="&#x25fc;" horiz-adv-x="552" d="M0 0v553h553v-553h-553z" />
</font>
</defs>
</svg>
